<svg width="24" height="24" viewBox="0 0 24 24" fill="none" xmlns="http://www.w3.org/2000/svg">
<path d="M4 11.25C3.58579 11.25 3.25 11.5858 3.25 12C3.25 12.4142 3.58579 12.75 4 12.75V11.25ZM20.0303 12.5303C20.3232 12.2374 20.3232 11.7626 20.0303 11.4697L15.2574 6.6967C14.9645 6.40381 14.4896 6.40381 14.1967 6.6967C13.9038 6.98959 13.9038 7.46447 14.1967 7.75736L18.4393 12L14.1967 16.2426C13.9038 16.5355 13.9038 17.0104 14.1967 17.3033C14.4896 17.5962 14.9645 17.5962 15.2574 17.3033L20.0303 12.5303ZM4 12.75H19.5V11.25H4V12.75Z" fill="#E75A5D"/>
</svg>
