<svg width="53" height="21" viewBox="0 0 53 21" fill="none" xmlns="http://www.w3.org/2000/svg">
<path d="M2.31055 2.1842C16.7275 2.1842 31.1445 2.1842 45.5615 2.1842C46.9626 2.1842 48.5148 1.99289 49.9046 2.20671C50.4075 2.28406 51.7021 2.58926 50.4222 2.58926C44.7204 2.58926 38.9314 2.27624 33.2748 3.08433C25.0694 4.25654 16.9367 5.97493 8.88146 7.76498C7.27586 8.12178 5.86423 9.07016 8.38639 9.07016C11.9892 9.07016 15.7028 9.96546 19.3229 10.1953C25.462 10.5851 31.6239 10.6904 37.7755 10.6904C39.9105 10.6904 42.8594 10.1665 44.9315 10.7804C45.4751 10.9415 48.0062 11.0954 46.3717 11.0954C43.9426 11.0954 41.8668 11.3561 39.4857 11.9055C35.4386 12.8395 29.0292 14.0344 25.8938 16.8562C24.6477 17.9778 27.8572 18.281 28.6392 18.4765C29.9452 18.803 32.0137 20.4916 30.2594 18.3864" stroke="#E75A5D" stroke-width="3" stroke-linecap="round" stroke-linejoin="round"/>
</svg>
