<svg width="145" height="27" viewBox="0 0 145 27" fill="none" xmlns="http://www.w3.org/2000/svg">
<g clip-path="url(#clip0)">
<path d="M43.0496 22.4621C45.6746 22.4621 47.8746 21.6121 49.6496 19.9371C51.4246 18.2621 52.2996 16.1871 52.2996 13.7121C52.2996 11.2371 51.4246 9.16207 49.6496 7.48707C47.8746 5.81207 45.6746 4.96207 43.0496 4.96207H35.7496V22.4621H43.0496ZM43.0496 9.16207C44.3246 9.16207 45.3746 9.61207 46.2246 10.4871C47.0996 11.3621 47.5246 12.4371 47.5246 13.7121C47.5246 14.9871 47.0996 16.0871 46.2246 16.9621C45.3746 17.8371 44.3246 18.2621 43.0496 18.2621H40.3246V9.16207H43.0496ZM67.1154 17.5121C67.2404 17.0371 67.2904 16.5371 67.2904 15.9621C67.2904 14.0371 66.6154 12.4371 65.2904 11.1371C63.9654 9.81207 62.3154 9.16207 60.3404 9.16207C58.3654 9.16207 56.7154 9.81207 55.3904 11.1371C54.0654 12.4371 53.3904 14.0371 53.3904 15.9621C53.3904 17.8871 54.0654 19.4871 55.4154 20.8121C56.7904 22.1121 58.4904 22.7621 60.5404 22.7621C63.4154 22.7621 65.7904 21.3121 66.9154 19.0371L62.7154 18.2621C62.1904 18.8871 61.4904 19.2121 60.6154 19.2121C59.4154 19.2121 58.4904 18.5371 58.0904 17.5121H67.1154ZM58.0904 14.3621C58.4654 13.3621 59.4154 12.7121 60.4404 12.7121C61.5404 12.7121 62.4654 13.3621 62.8404 14.3621H58.0904ZM71.9076 22.4621H76.1826L81.2076 9.46207H76.7076L74.0576 17.0121L71.3826 9.46207H66.8826L71.9076 22.4621ZM94.6057 17.5121C94.7307 17.0371 94.7807 16.5371 94.7807 15.9621C94.7807 14.0371 94.1057 12.4371 92.7807 11.1371C91.4557 9.81207 89.8057 9.16207 87.8307 9.16207C85.8557 9.16207 84.2057 9.81207 82.8807 11.1371C81.5557 12.4371 80.8807 14.0371 80.8807 15.9621C80.8807 17.8871 81.5557 19.4871 82.9057 20.8121C84.2807 22.1121 85.9807 22.7621 88.0307 22.7621C90.9057 22.7621 93.2807 21.3121 94.4057 19.0371L90.2057 18.2621C89.6807 18.8871 88.9807 19.2121 88.1057 19.2121C86.9057 19.2121 85.9807 18.5371 85.5807 17.5121H94.6057ZM85.5807 14.3621C85.9557 13.3621 86.9057 12.7121 87.9307 12.7121C89.0307 12.7121 89.9557 13.3621 90.3307 14.3621H85.5807ZM100.302 22.4621V3.71207H95.9273V22.4621H100.302ZM103.535 20.8121C104.86 22.1121 106.535 22.7621 108.535 22.7621C110.535 22.7621 112.21 22.1121 113.535 20.8121C114.885 19.4871 115.56 17.8871 115.56 15.9621C115.56 14.0371 114.885 12.4371 113.535 11.1371C112.21 9.81207 110.535 9.16207 108.535 9.16207C106.535 9.16207 104.86 9.81207 103.535 11.1371C102.21 12.4371 101.535 14.0371 101.535 15.9621C101.535 17.8871 102.21 19.4871 103.535 20.8121ZM108.535 18.4621C107.21 18.4621 106.11 17.3371 106.11 15.9621C106.11 14.5871 107.21 13.4621 108.535 13.4621C109.91 13.4621 110.985 14.5871 110.985 15.9621C110.985 17.3371 109.91 18.4621 108.535 18.4621ZM121.152 28.0871V21.7371C122.127 22.4121 123.202 22.7621 124.377 22.7621C126.077 22.7621 127.502 22.1121 128.627 20.8121C129.777 19.5121 130.352 17.8871 130.352 15.9621C130.352 14.0371 129.777 12.4121 128.627 11.1121C127.502 9.81207 126.077 9.16207 124.377 9.16207C123.202 9.16207 122.127 9.51207 121.152 10.1871V9.46207H116.777V28.0871H121.152ZM121.202 15.9871C121.202 14.5621 122.202 13.4621 123.502 13.4621C124.802 13.4621 125.802 14.5621 125.802 15.9871C125.802 17.3621 124.777 18.4621 123.502 18.4621C122.227 18.4621 121.202 17.3621 121.202 15.9871ZM131.572 22.4621H135.947V15.1621C135.947 14.0371 136.747 13.1871 137.822 13.1871C138.897 13.1871 139.672 14.0371 139.672 15.1621V22.4621H144.047V14.0871C144.047 12.7121 143.572 11.5371 142.622 10.5871C141.697 9.63707 140.547 9.16207 139.197 9.16207C137.897 9.16207 136.822 9.61207 135.947 10.5121V3.71207H131.572V22.4621Z" fill="#E9ECEF"/>
<path d="M3.72902 24.2534C4.56367 24.2534 5.24028 23.5768 5.24028 22.7421C5.24028 21.9075 4.56367 21.2309 3.72902 21.2309C2.89438 21.2309 2.21777 21.9075 2.21777 22.7421C2.21777 23.5768 2.89438 24.2534 3.72902 24.2534Z" fill="#E9ECEF"/>
<path d="M24.7392 26.6176C25.4392 26.6176 26.0067 26.0501 26.0067 25.3501C26.0067 24.65 25.4392 24.0826 24.7392 24.0826C24.0392 24.0826 23.4717 24.65 23.4717 25.3501C23.4717 26.0501 24.0392 26.6176 24.7392 26.6176Z" fill="#E9ECEF"/>
<path d="M0.92101 17.0388C1.10225 17.0772 1.28916 17.0807 1.47169 17.0489C2.32384 16.9054 5.734 16.4787 7.75069 19.1596C9.75022 21.8163 9.18862 25.1551 9.18862 25.1551C9.18862 25.1551 8.99362 26.3251 10.2124 26.4471C11.4311 26.5692 11.5774 25.3013 11.5774 25.3013C11.5774 25.3013 13.3324 15.065 2.34022 14.4554L2.3644 9.72431C2.36437 9.71176 2.3691 9.69967 2.37764 9.69047C2.38619 9.68128 2.3979 9.67567 2.41042 9.67478C2.98411 9.63032 8.83411 9.3152 13.2103 14.4554C17.3041 19.2661 16.6142 24.0849 16.4688 25.1075C16.4274 25.3988 16.4516 25.6925 16.5339 25.8613C16.679 26.1616 16.9169 26.4959 17.4753 26.4959C17.9667 26.4959 18.269 26.3009 18.4503 26.0903C18.615 25.8977 18.7135 25.6574 18.7315 25.4047C18.8731 23.6208 19.6211 7.95917 2.38273 7.26731C2.37083 7.26681 2.35958 7.26175 2.3513 7.25319C2.34303 7.24462 2.33836 7.2332 2.33827 7.22129V2.42117C2.33827 2.40655 2.34405 2.39252 2.35435 2.38215C2.36465 2.37177 2.37864 2.36589 2.39326 2.36579C3.49891 2.35721 20.9432 2.5175 23.4221 21.2551C23.4221 21.2551 23.5917 22.4871 24.8358 22.3521C25.9571 22.2301 25.835 21.0846 25.835 21.0846C25.835 21.0846 24.6295 -0.0370013 1.42567 4.86859e-05C1.19452 -0.000858887 0.966835 0.0561693 0.763406 0.165923C0.559977 0.275677 0.387292 0.434657 0.26113 0.628339C0.107613 0.871577 0.0255813 1.15308 0.0244001 1.44071C0.000220119 2.56157 0.00022031 16.1129 0.00022031 16.1129C0.00022031 16.1129 -0.0387797 16.8282 0.92101 17.0388Z" fill="#E9ECEF"/>
</g>
<defs>
<clipPath id="clip0">
<rect width="144.85" height="26.62" fill="white"/>
</clipPath>
</defs>
</svg>
