<svg width="152" height="29" viewBox="0 0 152 29" fill="none" xmlns="http://www.w3.org/2000/svg">
<path d="M2.17312 28.0512C2.10034 27.928 1.94777 27.8104 1.71538 27.6983C1.49896 27.5851 1.38852 27.4966 1.38405 27.4328C1.37959 27.3689 1.33299 27.276 1.24426 27.1538C1.17037 27.0147 1.09927 26.9154 1.03096 26.856C0.944458 26.7658 0.952216 26.5327 1.05423 26.1567C1.15514 25.7647 1.3143 25.2884 1.53173 24.7279C1.74916 24.1674 1.98997 23.5972 2.25417 23.0173C2.37293 22.8807 2.4889 22.7042 2.60207 22.4878C2.71525 22.2713 2.80153 22.129 2.86091 22.0607C2.85645 21.9968 2.87648 21.9393 2.92102 21.8881C2.96444 21.8209 3.01807 21.785 3.08191 21.7806L3.24666 21.3841C3.27412 21.318 3.36095 21.1836 3.50717 20.981C3.66935 20.7771 3.86233 20.5551 4.08612 20.3149C4.3088 20.0588 4.53259 19.8186 4.75749 19.5944C4.99836 19.369 5.19525 19.2029 5.34816 19.0959C5.66772 18.8491 6.00363 18.7213 6.35588 18.7127C6.7241 18.703 7.04316 18.793 7.31304 18.9826C7.36427 19.0271 7.47472 19.1157 7.64437 19.2481C7.82999 19.3795 8.03268 19.5257 8.25245 19.6868C8.48818 19.8467 8.69088 19.993 8.86053 20.1254L9.80162 20.8536L9.47832 22.0791C9.31547 22.7321 9.29867 23.2946 9.42792 23.7667C9.57313 24.2378 9.75378 24.6421 9.96986 24.9799C10.0619 25.1499 10.1752 25.2783 10.3096 25.3651C10.4599 25.4508 10.6479 25.5019 10.8736 25.5182C11.0024 25.5252 11.1255 25.5647 11.2428 25.6367C11.3601 25.7087 11.4249 25.8325 11.4372 26.008C11.4639 26.3911 11.4117 26.6754 11.2803 26.8611C11.1638 27.0296 11.0268 27.1354 10.8694 27.1785C10.3472 27.2792 9.84049 27.2585 9.34939 27.1164C8.85828 26.9743 8.39552 26.5495 7.96112 25.8421C7.89058 25.7508 7.79051 25.5814 7.66093 25.3338C7.54619 25.0692 7.47805 24.8975 7.45651 24.8188C7.39824 24.9031 7.31771 25.013 7.21491 25.1485C7.12696 25.2669 7.03845 25.3773 6.94938 25.4798C5.8965 26.7082 4.97534 27.5265 4.18588 27.9346C3.41127 28.3255 2.74035 28.3644 2.17312 28.0512ZM3.35095 25.972C3.46379 25.9802 3.63546 25.912 3.86594 25.7676C4.09531 25.6072 4.39835 25.3534 4.77505 25.0063C5.28536 24.5055 5.70548 24.0912 6.03542 23.7634C6.36536 23.4356 6.68117 23.0205 6.98287 22.5182L7.44932 21.6195C7.26404 21.2636 7.10365 21.0342 6.96814 20.9314C6.83264 20.8286 6.70105 20.7817 6.57336 20.7906C6.36587 20.8051 6.12796 20.9581 5.85963 21.2495C5.59019 21.525 5.28978 21.9309 4.95839 22.4673C4.64185 22.9867 4.28635 23.6371 3.8919 24.4185C3.70896 24.7841 3.57334 25.1385 3.48505 25.4815C3.39565 25.8085 3.35095 25.972 3.35095 25.972ZM13.3425 28.0401C13.0448 28.1411 12.7673 28.0723 12.5101 27.8336C12.2539 27.611 12.0612 27.2636 11.9319 26.7914C11.8027 26.3193 11.7813 25.7835 11.8677 25.184C11.9341 24.9869 11.9851 24.7989 12.0207 24.6199C12.0552 24.4251 12.0685 24.2718 12.0607 24.16C12.0815 23.9982 12.1291 23.7623 12.2037 23.4523C12.2771 23.1264 12.358 22.792 12.4463 22.449C12.5346 22.106 12.6177 21.8034 12.6956 21.5414C12.7883 21.2622 12.8484 21.0896 12.8759 21.0235C12.9397 21.0191 12.9917 20.9593 13.0318 20.8442C13.0718 20.7291 13.088 20.6157 13.0802 20.504C13.0712 20.3763 13.0851 20.231 13.1218 20.068C13.1745 19.904 13.2306 19.7878 13.2899 19.7195C13.2844 19.6397 13.2942 19.5508 13.3194 19.4528C13.3595 19.3377 13.3773 19.2482 13.3728 19.1844C13.3684 19.1205 13.3798 19.0556 13.4073 18.9895C13.4507 18.9223 13.4702 18.8568 13.4657 18.793C13.563 18.5776 13.6837 18.2404 13.828 17.7812C13.9872 17.305 14.151 16.7802 14.3194 16.2071C14.5038 15.6328 14.6728 15.0677 14.8264 14.5116C14.98 13.9555 15.0998 13.49 15.1859 13.1151C15.2868 12.7231 15.3344 12.4872 15.3288 12.4074C15.3199 12.2797 15.3594 12.1567 15.4474 12.0383C15.5353 11.9198 15.6432 11.8562 15.7708 11.8472C15.8154 11.796 15.9249 11.7563 16.0993 11.728C16.2727 11.6838 16.3913 11.6595 16.4551 11.655C16.4551 11.655 16.4893 11.6847 16.5576 11.7441C16.6259 11.8035 16.7283 11.8926 16.865 12.0113C17.0005 12.1141 17.1291 12.2334 17.2509 12.3693C17.3886 12.504 17.4642 12.6671 17.4776 12.8586C17.4921 13.0661 17.4741 13.2679 17.4236 13.4639C17.3892 13.6588 17.3118 13.9288 17.1916 14.274C17.0703 14.6033 16.8803 15.0978 16.6217 15.7574C16.5163 16.0856 16.4018 16.3983 16.2783 16.6956C16.1536 16.977 16.0935 17.1496 16.098 17.2135C16.1024 17.2773 16.0772 17.3753 16.0223 17.5075C15.9833 17.6385 15.9386 17.802 15.8882 17.998C15.8333 18.1302 15.7589 18.3279 15.665 18.591C15.57 18.8383 15.4687 19.11 15.3611 19.4062C15.2684 19.6854 15.1894 19.9315 15.1241 20.1446C15.0577 20.3417 15.0256 20.4562 15.0278 20.4881C15.0323 20.552 15.0287 20.6164 15.0172 20.6813C15.0217 20.7452 14.9943 20.8112 14.9349 20.8796C14.871 20.884 14.8345 20.9347 14.8252 21.0316C14.8308 21.1114 14.8336 21.1513 14.8336 21.1513C14.8447 21.3109 14.7466 21.7428 14.5392 22.447C14.3453 23.3427 14.1622 24.1655 13.9901 24.9153C13.8339 25.664 13.7715 26.2618 13.8027 26.7087C13.8295 27.0918 13.7863 27.3915 13.6731 27.608C13.5759 27.8233 13.4657 27.9673 13.3425 28.0401ZM18.8343 27.5358C18.3236 27.5715 17.8449 27.4927 17.3983 27.2994C16.9666 27.089 16.6113 26.8251 16.3325 26.5078C16.0526 26.1745 15.9014 25.8482 15.8791 25.529C15.8691 25.3854 15.8858 25.2799 15.9292 25.2127C15.9886 25.1444 16.0741 25.1064 16.1858 25.0986C16.2668 25.1089 16.3653 25.1422 16.4815 25.1982C16.5977 25.2542 16.7145 25.3182 16.8318 25.3902C17.0994 25.5479 17.3865 25.6401 17.6932 25.6668C17.9998 25.6935 18.27 25.6585 18.5038 25.562C18.7365 25.4495 18.8622 25.2964 18.8807 25.1026C18.8762 25.0388 18.8348 24.9053 18.7565 24.7023C18.6781 24.4993 18.5844 24.3053 18.4752 24.1205C18.0349 23.5578 17.7484 23.0165 17.6158 22.4965C17.4821 21.9605 17.3803 21.4223 17.3104 20.8818C17.2948 20.6584 17.3813 20.4037 17.5698 20.1179C17.7572 19.8161 17.993 19.5189 18.2773 19.2264C18.5924 18.9156 18.9405 18.6186 19.3217 18.3353C19.7188 18.0509 20.1108 17.807 20.4975 17.6035C20.8843 17.4001 21.2122 17.2729 21.4813 17.222C21.7686 17.2019 22.073 17.1967 22.3944 17.2063C22.7307 17.1988 22.9581 17.239 23.0765 17.327C23.3122 17.4869 23.5398 17.7597 23.7593 18.1453C23.9787 18.531 24.0979 18.8595 24.1169 19.1308C24.1258 19.2585 24.0651 19.4231 23.9349 19.6247C23.8195 19.8092 23.7137 20.0171 23.6176 20.2483C23.5616 20.3645 23.5141 20.4881 23.4751 20.6192C23.4362 20.7502 23.3892 20.8818 23.3343 21.014C23.2542 21.2441 23.0853 21.3522 22.8277 21.3381C22.5849 21.307 22.3526 21.1949 22.1306 21.0019C21.9074 20.793 21.7858 20.5448 21.7657 20.2575C21.749 20.0181 21.8063 19.8056 21.9377 19.62C22.0691 19.4344 22.1325 19.3096 22.1281 19.2458C22.1258 19.2139 22.1082 19.1911 22.0751 19.1773C22.0421 19.1636 21.9857 19.1595 21.9059 19.1651C21.7942 19.1729 21.614 19.2336 21.3653 19.3473C21.1314 19.4438 20.8844 19.5814 20.6243 19.76C20.3641 19.9385 20.1301 20.1474 19.9222 20.3865C19.7749 20.5732 19.6526 20.7742 19.5554 20.9895C19.473 21.1877 19.4397 21.3986 19.4553 21.622C19.4709 21.8455 19.5292 22.1061 19.6303 22.4037C19.7461 22.6843 19.8666 22.9165 19.9917 23.1002C20.0259 23.1299 20.0799 23.2143 20.1538 23.3535C20.2425 23.4756 20.3415 23.6291 20.4506 23.8139C21.126 24.9857 21.2848 25.8808 20.9271 26.4992C20.5853 27.1166 19.8877 27.4621 18.8343 27.5358ZM27.205 26.6136C26.8743 26.7009 26.6178 26.7028 26.4355 26.6193C26.2681 26.5187 26.091 26.3948 25.9043 26.2474C25.64 26.1376 25.3963 25.9782 25.1732 25.7693C24.9489 25.5444 24.772 25.3081 24.6424 25.0606C24.5128 24.813 24.451 24.6168 24.4569 24.4721C24.4657 23.9101 24.551 23.2946 24.7127 22.6257C24.8904 21.9557 25.1251 21.2977 25.4168 20.6518C25.7244 20.0048 26.0769 19.4268 26.4744 18.9178C26.8867 18.3918 27.3404 17.9992 27.8355 17.74C28.1458 17.59 28.4856 17.5181 28.855 17.5244C29.2243 17.5306 29.4823 17.6649 29.629 17.9274C29.9008 18.3735 29.8655 18.6727 29.5233 18.8249C29.4755 18.8283 29.4213 18.8561 29.3608 18.9085C29.2992 18.9448 29.2706 18.995 29.275 19.0588C29.3411 19.0863 29.5172 19.082 29.8034 19.0459C30.0885 18.9939 30.3724 18.9259 30.6553 18.842C30.953 18.741 31.1469 18.6472 31.2371 18.5607C31.3295 18.5061 31.3996 18.4772 31.4475 18.4738C31.4954 18.4705 31.6162 18.4781 31.81 18.4966C32.0869 18.5574 32.2293 18.6437 32.2371 18.7554C32.2416 18.8193 32.2728 18.9214 32.3307 19.0617C32.3875 19.186 32.4478 19.2459 32.5117 19.2415C32.6245 19.2496 32.6563 19.3597 32.6069 19.5716C32.5736 19.7825 32.4051 20.0108 32.1015 20.2566C31.8116 20.4693 31.629 20.6104 31.5537 20.6798C31.4932 20.7321 31.493 20.8444 31.5532 21.0167C31.7021 21.311 31.7198 21.6786 31.6062 22.1196C31.4927 22.5606 31.2846 23.0243 30.9817 23.5106C30.6789 23.9969 30.3106 24.4637 29.8767 24.9111C29.4577 25.3414 29.0109 25.7174 28.5362 26.0393C28.0763 26.3442 27.6326 26.5356 27.205 26.6136ZM27.1362 24.5975C27.2 24.593 27.3095 24.5533 27.4647 24.4783C27.6187 24.3873 27.7419 24.3145 27.8343 24.26C27.8937 24.1917 27.9685 24.1143 28.0587 24.0278C28.1637 23.9242 28.2476 23.8622 28.3103 23.8417C28.3742 23.8373 28.4124 23.8105 28.425 23.7615C28.4365 23.6966 28.484 23.573 28.5675 23.3907C28.6499 23.1925 28.8219 22.8998 29.0835 22.5126C29.3782 22.1391 29.5661 21.8453 29.6474 21.6311C29.7275 21.4009 29.7188 21.161 29.6211 20.9112C29.6007 20.8484 29.55 20.8119 29.4691 20.8015C29.4041 20.79 29.3135 20.7562 29.1974 20.7002C29.0377 20.7114 28.9288 20.7591 28.8705 20.8434C28.8271 20.9106 28.7126 20.8785 28.527 20.7471L28.1104 20.295L27.7319 20.7305C27.4944 21.0037 27.2853 21.3392 27.1046 21.7367C26.9398 22.1332 26.8155 22.5348 26.7317 22.9417C26.6479 23.3485 26.6006 23.7047 26.5899 24.0102C26.5907 24.2507 26.6417 24.4075 26.7431 24.4806C26.8444 24.5537 26.9755 24.5927 27.1362 24.5975ZM40.9736 28.61C40.7182 28.6279 40.5109 28.5301 40.3516 28.3167C40.1924 28.1033 40.1105 27.9647 40.106 27.9008C40.1142 27.788 40.1309 27.6825 40.1561 27.5845C40.1824 27.5025 40.2008 27.421 40.2112 27.3401C40.2319 27.1783 40.2345 26.9856 40.2189 26.7622C40.2044 26.5547 40.2004 26.154 40.207 25.5601C40.2102 24.9183 40.2133 24.3888 40.2162 23.9715C40.2351 23.5532 40.2573 23.1828 40.2828 22.8602C40.3084 22.5376 40.3419 22.2145 40.3835 21.8908C40.4239 21.5512 40.4832 21.138 40.5614 20.6514C40.6033 20.1031 40.5799 19.7679 40.4911 19.6458C40.4184 19.5226 40.2936 19.4592 40.1169 19.4555C39.8114 19.4448 39.5425 19.3834 39.3101 19.2713C39.0766 19.1433 38.9213 18.9857 38.844 18.7987C38.6732 18.6502 38.6233 18.5094 38.6942 18.3761C38.781 18.2417 38.9493 18.1257 39.1991 18.028C39.4478 17.9144 39.7164 17.8555 40.0048 17.8514C40.275 17.8165 40.4814 17.786 40.6239 17.76C40.7813 17.7169 40.9034 17.6282 40.9902 17.4938C41.0759 17.3434 41.155 17.0973 41.2273 16.7554C41.2492 16.6096 41.2922 16.4221 41.3564 16.1931C41.4365 15.9629 41.5104 15.7573 41.5779 15.5761C41.6454 15.395 41.6792 15.3044 41.6792 15.3044C41.815 15.1826 41.8768 15.0339 41.8645 14.8584C41.8649 14.6338 41.948 14.3313 42.1138 13.9508C42.2945 13.5532 42.5843 12.9956 42.9832 12.278C43.4768 11.5378 43.9713 10.9258 44.4668 10.4421C44.9771 9.94127 45.5242 9.62233 46.108 9.48527C46.1697 9.44888 46.3122 9.42287 46.5356 9.40725C46.7591 9.39162 46.9107 9.38102 46.9905 9.37544C47.3268 9.36796 47.6208 9.44364 47.8725 9.60247C48.1391 9.74422 48.3536 9.94574 48.5163 10.207C48.6585 10.4056 48.7036 10.7072 48.6517 11.1118C48.6146 11.4993 48.539 11.7933 48.4247 11.9938C48.3538 12.127 48.2065 12.3138 47.9827 12.554C47.7748 12.7931 47.5653 13.0082 47.3542 13.1994C47.143 13.3906 47.0055 13.4884 46.9416 13.4929C46.8618 13.4985 46.7377 13.443 46.5691 13.3265C46.4006 13.2099 46.2987 13.1288 46.2634 13.0832C46.1862 12.8961 46.1898 12.7194 46.2745 12.5531C46.3739 12.3697 46.4739 12.1943 46.5745 12.0269C46.7173 11.7763 46.794 11.6106 46.8044 11.5297C46.8147 11.4488 46.7943 11.386 46.7431 11.3415C46.6907 11.281 46.635 11.1726 46.576 11.0164L46.8065 11.2168C46.6903 11.1607 46.5929 11.1435 46.5142 11.165C46.4355 11.1866 46.3106 11.2354 46.1395 11.3115C45.8474 11.4923 45.6648 11.6334 45.5917 11.7348C45.5334 11.819 45.4449 11.9295 45.3262 12.0661C44.9665 12.4281 44.7151 12.8466 44.5719 13.3218C44.4276 13.781 44.2662 14.2253 44.0877 14.6548C44.0328 14.7869 43.9378 15.0342 43.8028 15.3965C43.6826 15.7417 43.5692 16.0704 43.4627 16.3826C43.3711 16.6777 43.283 16.9084 43.1984 17.0747C43.1127 17.2251 43.0715 17.3242 43.0748 17.3721C43.0347 17.4871 43.0626 17.5413 43.1584 17.5346C43.2701 17.5268 43.485 17.5038 43.8031 17.4655C44.5785 17.315 45.1217 17.2851 45.4328 17.3756C45.7587 17.449 45.9625 17.6112 46.0442 17.8621C46.3424 18.2262 46.2901 18.5106 45.8874 18.7151C45.4995 18.9027 44.8551 19.0921 43.9543 19.2834C43.7 19.3172 43.5016 19.3471 43.3591 19.3731C43.2154 19.3832 43.1043 19.3989 43.0256 19.4205C42.9629 19.4409 42.9007 19.4693 42.8391 19.5057C42.7775 19.5421 42.7168 19.7067 42.6571 19.9996C42.6534 20.1763 42.6338 20.3541 42.5981 20.533C42.5774 20.6949 42.5668 20.8881 42.5665 21.1126C42.5161 21.3086 42.4821 21.5115 42.4647 21.7212C42.4633 21.9298 42.4282 22.1167 42.3596 22.2819C42.3252 23.1665 42.3114 24.0015 42.3182 24.7869C42.3239 25.5564 42.3064 26.2232 42.2656 26.7874C42.2408 27.3505 42.1348 27.783 41.9473 28.0848C41.8446 28.2203 41.6779 28.3603 41.4474 28.5047C41.2329 28.648 41.075 28.6831 40.9736 28.61ZM48.9555 25.5017C48.7492 25.5321 48.5799 25.5199 48.4477 25.465C48.3167 25.426 48.1515 25.3574 47.9522 25.2591C47.5821 25.0123 47.2633 24.6977 46.996 24.3155C46.7447 23.9321 46.6175 23.6041 46.6145 23.3317C46.6363 23.1858 46.6274 23.0581 46.5877 22.9486C46.5639 22.838 46.552 22.7827 46.552 22.7827C46.4507 22.7096 46.4154 22.6639 46.4462 22.6457C46.4759 22.6116 46.4965 22.562 46.508 22.4971C46.6334 22.4562 46.6433 22.3673 46.5375 22.2304C46.4806 22.106 46.4845 21.817 46.549 21.3634C46.6284 20.8928 46.7419 20.4518 46.8896 20.0405C46.9571 19.8593 47.0526 19.6201 47.1762 19.3227C47.3157 19.0243 47.4712 18.7247 47.6426 18.424C47.813 18.1073 47.9718 17.8556 48.1191 17.6689C48.4424 17.2453 48.7307 16.8964 48.9842 16.622C49.2536 16.3466 49.5595 16.1327 49.9017 15.9805C50.212 15.8304 50.5273 15.7523 50.8476 15.7459C51.1839 15.7384 51.487 15.8295 51.7569 16.0191C52.1478 16.1041 52.5032 16.2557 52.8232 16.4739C53.1421 16.6761 53.3719 16.9808 53.5127 17.388C53.6727 17.8419 53.7511 18.3898 53.7479 19.0316C53.7595 19.6563 53.5445 20.4813 53.103 21.5066C52.8432 22.1503 52.5751 22.6743 52.2987 23.0785C52.0381 23.4817 51.7127 23.8734 51.3222 24.2535C51.0368 24.5301 50.6614 24.7809 50.196 25.0059C49.7305 25.2309 49.3171 25.3962 48.9555 25.5017ZM50.7857 21.7408C50.9731 21.439 51.1131 21.1485 51.2059 20.8694C51.3146 20.5891 51.4081 20.2057 51.4863 19.719C51.5219 19.5401 51.5308 19.323 51.513 19.0676C51.5111 18.8111 51.4869 18.5802 51.4405 18.375C51.4089 18.1526 51.3446 18.0368 51.2478 18.0275C51.0347 17.9623 50.8192 17.9773 50.6013 18.0727C50.3983 18.1511 50.1643 18.3599 49.8993 18.6992C49.664 19.0044 49.4755 19.2902 49.3338 19.5568C49.2069 19.8062 49.0918 20.111 48.9887 20.4711C48.9004 20.8141 48.8034 21.2619 48.6977 21.8147C48.6069 22.3503 48.6285 22.7738 48.7625 23.0852C48.9125 23.3955 49.1581 23.4666 49.4992 23.2984C49.8403 23.1302 50.2691 22.611 50.7857 21.7408ZM55.678 24.1655C55.5266 24.0638 55.3569 23.9313 55.1691 23.768C54.9972 23.6036 54.924 23.3601 54.9496 23.0375C54.9662 22.5873 55.0027 22.1918 55.0591 21.851C55.1143 21.4943 55.1822 21.0886 55.2627 20.6338C55.2812 20.4401 55.3381 20.1073 55.4334 19.6355C55.5447 19.1626 55.6771 18.6481 55.8307 18.092C55.9843 17.5359 56.1481 17.0112 56.3221 16.5179C56.495 16.0086 56.6529 15.6287 56.7958 15.3781C56.9602 15.2062 57.21 15.1085 57.5452 15.0851C57.8963 15.0605 58.1402 15.1076 58.2768 15.2264C58.4624 15.3578 58.5361 15.6092 58.498 15.9808C58.4587 16.3364 58.2737 16.9027 57.9431 17.6797C57.8767 17.8768 57.7875 18.0915 57.6754 18.3239C57.5782 18.5392 57.5107 18.7204 57.4728 18.8674C57.4339 18.9984 57.4537 19.0531 57.5324 19.0316C57.6159 18.8493 57.7775 18.6375 58.0173 18.3962C58.2559 18.139 58.5111 17.8885 58.7827 17.645C59.0544 17.4015 59.3118 17.183 59.5549 16.9895C59.798 16.7961 59.9658 16.6721 60.0582 16.6175C60.1803 16.5288 60.3195 16.4549 60.4757 16.3959C60.6468 16.3197 60.7632 16.2635 60.8248 16.2271C61.1796 16.0259 61.5742 15.9341 62.0085 15.9519C62.4576 15.9525 62.7385 16.0692 62.851 16.3019C62.8759 16.4285 62.9304 16.5209 63.0147 16.5792C63.1149 16.6363 63.165 16.6649 63.165 16.6649C63.2289 16.6605 63.2625 16.6822 63.2658 16.73C63.2851 16.7768 63.2948 16.8002 63.2948 16.8002C63.3026 16.9119 63.202 17.0793 62.9931 17.3025C62.8001 17.5245 62.5765 17.6524 62.3222 17.6862C62.1159 17.7167 61.9351 17.7694 61.78 17.8444C61.6248 17.9194 61.4389 18.0126 61.2221 18.124C60.6401 18.5176 60.1112 18.8673 59.6354 19.1732C59.1756 19.4781 58.7098 19.9277 58.2381 20.522C58.1353 20.6575 58.024 20.7856 57.9041 20.9062C57.7842 21.0269 57.6677 21.1954 57.5545 21.4119C57.4803 21.4972 57.4128 21.6784 57.3519 21.9553C57.2911 22.2322 57.2377 22.5006 57.1917 22.7604C57.1606 23.0032 57.1467 23.1485 57.15 23.1964C57.15 23.1964 57.1316 23.2779 57.0949 23.4409C57.0571 23.5879 56.9873 23.7371 56.8856 23.8885C56.712 24.1573 56.5316 24.3303 56.3445 24.4076C56.1734 24.4837 55.9513 24.403 55.678 24.1655ZM76.5636 23.3305C76.3253 23.3632 76.1024 23.3868 75.8949 23.4013C75.7034 23.4147 75.5495 23.3934 75.4333 23.3374C75.1293 23.1181 74.9244 22.9399 74.8185 22.803C74.7287 22.6649 74.6776 22.5081 74.6654 22.3325C74.6657 22.1079 74.658 21.8839 74.6424 21.6605C74.6257 21.4211 74.6128 21.2375 74.6039 21.1098C74.5356 21.0504 74.4129 21.1312 74.2359 21.3521C74.0589 21.573 73.8494 21.7881 73.6074 21.9975C73.1517 22.5907 72.7412 23.0284 72.376 23.3106C72.0097 23.5768 71.668 23.737 71.351 23.7913C71.0352 23.8615 70.7165 23.8918 70.395 23.8822C70.1055 23.8703 69.8401 23.7445 69.5988 23.5048C69.3734 23.2639 69.1921 22.9638 69.0547 22.6045C68.9332 22.2441 68.8762 21.8873 68.8836 21.5339C68.9176 20.8739 69.02 20.2733 69.1906 19.7321C69.3602 19.1749 69.6318 18.5865 70.0055 17.9669C70.1791 17.6982 70.415 17.401 70.713 17.0754C71.027 16.7487 71.3666 16.4443 71.7318 16.1621C72.0959 15.864 72.4256 15.6485 72.7211 15.5155C73.1694 15.2757 73.5458 15.1531 73.8502 15.1479C74.1705 15.1415 74.4851 15.1676 74.794 15.2262C75.0252 15.3223 75.2047 15.3659 75.3324 15.357C75.476 15.3469 75.5742 15.2599 75.6269 15.0958C75.7137 14.9614 75.7744 14.7968 75.8089 14.6019C75.8434 14.407 75.9103 14.2179 76.0098 14.0345L76.4277 12.4415C76.5731 11.9983 76.746 11.489 76.9464 10.9136C77.1467 10.3382 77.3745 9.69674 77.6298 8.98921C77.9534 8.34106 78.2417 7.9921 78.4949 7.94232C78.764 7.89142 79.0533 8.01554 79.363 8.31467C79.5679 8.49281 79.6884 8.72497 79.7244 9.01115C79.7753 9.28026 79.7258 9.6045 79.5759 9.98388C79.4765 10.1673 79.3724 10.3991 79.2637 10.6794C79.1538 10.9437 79.0234 11.2575 78.8724 11.6209C78.7258 12.0482 78.5713 12.476 78.4088 12.9044C78.2622 13.3317 78.1105 13.7994 77.9536 14.3076C77.9076 14.5674 77.8404 14.8688 77.7522 15.2118C77.6798 15.5537 77.6212 15.8626 77.5764 16.1384C77.5463 16.3971 77.5072 16.6404 77.459 16.8683C77.4256 17.0792 77.377 17.1868 77.3132 17.1913C77.1933 17.3119 77.0903 17.5597 77.0043 17.9346C76.9171 18.2936 76.8476 18.6754 76.7957 19.08C76.7597 19.4835 76.7267 19.8146 76.6967 20.0733C76.6782 20.2671 76.6732 20.5401 76.6818 20.8923C76.6893 21.2286 76.7042 21.5564 76.7265 21.8756C76.7477 22.1789 76.7622 22.3864 76.77 22.4981C76.7912 22.8014 76.7824 23.0185 76.7434 23.1495C76.7193 23.2635 76.6594 23.3238 76.5636 23.3305ZM71.0205 21.8175C71.3877 21.7918 71.7202 21.6162 72.0182 21.2906C72.3311 20.948 72.6747 20.5871 73.0492 20.2081C73.2719 19.9519 73.5009 19.6713 73.7362 19.3661C73.9703 19.045 74.1811 18.7335 74.3685 18.4317C74.5719 18.1288 74.7302 17.8691 74.8433 17.6527C74.9565 17.4363 75.0109 17.2961 75.0064 17.2323C75.0008 17.1525 74.932 17.0851 74.7998 17.0302C74.6836 16.9742 74.5446 16.9358 74.3828 16.915C74.2198 16.8783 74.0756 16.8804 73.9501 16.9212C73.5749 17.0597 73.2754 17.2491 73.0516 17.4893C72.8437 17.7284 72.5411 18.1024 72.1436 18.6113C71.7495 19.1682 71.4415 19.695 71.2196 20.1917C70.9977 20.6883 70.8655 21.0905 70.8228 21.3983C70.795 21.6889 70.8609 21.8287 71.0205 21.8175ZM83.914 22.3594C83.4542 22.6642 82.9546 22.8596 82.4152 22.9454C81.8908 23.0141 81.3909 22.9769 80.9158 22.8337C80.4395 22.6746 80.0449 22.4215 79.7319 22.0744C79.5578 21.8781 79.3833 21.5615 79.2084 21.1247C79.0324 20.6718 78.9649 20.051 79.006 19.2622C79.0504 18.5213 79.222 17.7635 79.5207 16.9888C79.8353 16.213 80.2359 15.5193 80.7224 14.9079C81.209 14.2965 81.7562 13.8652 82.3642 13.6142C82.5821 13.5188 82.8016 13.4473 83.0228 13.3998C83.2589 13.3351 83.5696 13.3054 83.9549 13.3105C84.3253 13.3327 84.6592 13.4056 84.9566 13.5292C85.2528 13.6368 85.4703 13.7659 85.6092 13.9166C85.8824 14.1541 86.0673 14.3898 86.1639 14.6236C86.2604 14.8575 86.3085 15.0867 86.3082 15.3112C86.2641 15.8276 86.0712 16.3944 85.7294 17.0118C85.4036 17.628 84.9155 18.1032 84.2653 18.4374C84.0017 18.5681 83.6876 18.6622 83.3227 18.7198C82.9578 18.7774 82.4517 18.7647 81.8043 18.6816C81.4157 18.6286 81.1631 18.6864 81.0466 18.8549C80.946 19.0223 80.9199 19.3369 80.9682 19.7987C81.0202 20.0837 81.1019 20.3346 81.2133 20.5514C81.3395 20.7511 81.5491 20.8808 81.842 20.9405C82.2135 20.9787 82.4775 20.9682 82.6337 20.9092C82.7889 20.8342 82.9822 20.7325 83.2138 20.604C83.336 20.5152 83.4495 20.4191 83.5546 20.3155C83.6755 20.2108 83.7886 20.1067 83.8936 20.0031C84.0146 19.8984 84.1133 19.8193 84.1898 19.7659C84.2651 19.6964 84.3421 19.651 84.4208 19.6294C84.4995 19.6079 84.5787 19.5943 84.6585 19.5887C84.8352 19.5924 85.0095 19.6765 85.1814 19.8409C85.3533 20.0053 85.4688 20.1656 85.5278 20.3219C85.5367 20.4496 85.4698 20.6387 85.3269 20.8893C85.1829 21.1239 84.9842 21.3784 84.7307 21.6527C84.4921 21.91 84.2198 22.1456 83.914 22.3594ZM83.2294 17.0422C83.3378 16.9865 83.4896 16.8636 83.6848 16.6736C83.896 16.4824 84.0827 16.2849 84.2449 16.081C84.4059 15.8613 84.4825 15.6955 84.4747 15.5838C84.4625 15.4082 84.3321 15.265 84.0838 15.154C83.8514 15.042 83.5545 15.0387 83.1929 15.1441C83.0675 15.185 82.922 15.2834 82.7565 15.4393C82.5909 15.5952 82.4271 15.7751 82.2649 15.9789C82.1016 16.1668 81.9623 16.3529 81.8469 16.5374C81.7303 16.706 81.6515 16.8398 81.6103 16.9389C81.6797 17.0143 81.8119 17.0692 82.0067 17.1037C82.2016 17.1381 82.4108 17.1476 82.6342 17.132C82.8737 17.1152 83.0721 17.0853 83.2294 17.0422ZM89.7048 22.6041C88.8589 22.6632 88.2174 22.4354 87.7804 21.9206C87.6509 21.6731 87.5771 21.4216 87.5593 21.1662C87.5563 20.8938 87.6067 20.6978 87.7106 20.5782C87.8134 20.4427 87.9508 20.4572 88.1227 20.6216C88.3391 20.7348 88.6388 20.778 89.0219 20.7512C89.2134 20.7378 89.381 20.7261 89.5247 20.716C89.6832 20.6889 89.8656 20.6601 90.072 20.6296C90.4368 20.5721 90.6605 20.4441 90.7428 20.2459C90.8412 20.0466 90.8061 19.8886 90.6375 19.7721L90.6615 19.7704C90.2227 19.6888 89.7886 19.5588 89.3591 19.3803C88.9296 19.2019 88.5623 18.995 88.2571 18.7597C87.9508 18.5084 87.7654 18.2648 87.7008 18.0287C87.5362 17.5109 87.5302 16.966 87.6827 16.394C87.8352 15.822 88.0804 15.3156 88.4185 14.875C88.5555 14.7692 88.7455 14.6195 88.9886 14.4261C89.2306 14.2167 89.4069 14.1001 89.5175 14.0764L89.5192 14.1003C89.8001 13.7599 90.1254 13.4805 90.4951 13.2622C90.8636 13.0279 91.2971 12.8051 91.7956 12.5938L92.1753 12.5192C92.3646 12.4738 92.5311 12.4462 92.6748 12.4361C92.6588 12.4372 92.6998 12.4504 92.7978 12.4756C92.8958 12.5009 92.9773 12.5192 93.0423 12.5307C93.1414 12.5719 93.2388 12.5892 93.3346 12.5825C93.5603 12.5988 93.7841 12.7034 94.0061 12.8964C94.243 13.0723 94.4347 13.2914 94.5814 13.5538C94.7429 13.7992 94.8155 14.0347 94.7992 14.2604C94.777 14.6308 94.667 15.0074 94.4692 15.3901C94.2703 15.7569 94.0448 15.9732 93.7928 16.0389C93.8236 16.0207 93.7895 15.991 93.6903 15.9498C93.5912 15.9087 93.5001 15.8669 93.4169 15.8246L93.3245 15.8792C93.3245 15.8792 93.3149 15.8558 93.2956 15.809C93.2922 15.7612 93.2723 15.7064 93.236 15.6448C93.1643 15.5375 93.108 15.4212 93.0672 15.2957C93.0423 15.1691 93.0323 15.0255 93.0371 14.8648C93.0567 14.687 93.0574 14.5827 93.0392 14.5519C93.021 14.521 92.9236 14.5038 92.7469 14.5001C92.5361 14.4667 92.2744 14.5091 91.9619 14.6272C91.6482 14.7293 91.363 14.8936 91.1062 15.1201C90.8015 15.3499 90.5738 15.5342 90.4231 15.6731C90.2884 15.8108 90.1856 15.9463 90.1147 16.0796C90.0427 16.1969 89.9666 16.3706 89.8865 16.6008C89.8304 16.717 89.7818 16.8246 89.7407 16.9237C89.6983 17.0069 89.68 17.0884 89.6856 17.1682C89.6967 17.3278 89.8441 17.4859 90.1277 17.6425C90.4102 17.7831 90.8306 17.9462 91.3889 18.1317C91.8322 18.2771 92.1282 18.497 92.2771 18.7913C92.442 19.0846 92.5897 19.3629 92.7204 19.6265C92.7568 19.6881 92.7971 19.8055 92.8413 19.9789C92.9004 20.1351 92.915 20.2304 92.8854 20.2645C92.9195 20.2942 92.9377 20.325 92.9399 20.3569L92.9383 20.333C93.0827 20.5635 93.0766 20.8205 92.92 21.1041C92.7783 21.3707 92.5396 21.6279 92.2041 21.876C91.8675 22.108 91.479 22.2875 91.0388 22.4145L91.0628 22.4129C90.8256 22.4615 90.5879 22.5022 90.3496 22.5349C90.1272 22.5665 89.9123 22.5896 89.7048 22.6041ZM97.3912 21.8741C97.0082 21.9009 96.659 21.7248 96.3438 21.3459C96.0435 20.9499 95.8413 20.4668 95.7373 19.8967C95.7443 19.7679 95.7474 19.5832 95.7466 19.3427C95.7618 19.101 95.7764 18.8514 95.7905 18.5938C95.8331 18.2861 95.8936 17.8889 95.9718 17.4022C96.0501 16.9156 96.1363 16.4284 96.2305 15.9406C96.3236 15.4369 96.4057 15.0061 96.477 14.6483C96.5471 14.2745 96.5879 14.0551 96.5993 13.9901C96.6795 13.76 96.8911 13.6891 97.2341 13.7774C97.577 13.8656 97.8811 14.085 98.1462 14.4353C98.2509 14.5563 98.3173 14.704 98.3456 14.8785C98.3898 15.0518 98.3837 15.3089 98.3273 15.6497C98.2869 15.9893 98.1938 16.493 98.0481 17.1608C97.9171 17.8115 97.8177 18.3398 97.7499 18.7455C97.6968 19.1341 97.6934 19.5434 97.7395 19.9732C97.727 20.7119 97.6983 21.2191 97.6534 21.4949C97.6074 21.7547 97.52 21.8811 97.3912 21.8741ZM98.8991 11.7844C98.8386 11.8367 98.7764 11.8651 98.7126 11.8696C98.6636 11.857 98.5724 11.8152 98.4392 11.7443C98.3263 11.7362 98.1777 11.6744 97.9932 11.559C97.8235 11.4265 97.6698 11.2929 97.5321 11.1582C97.4103 11.0223 97.3483 10.9385 97.3461 10.9065C97.3189 10.7481 97.3091 10.4921 97.3164 10.1387C97.3398 9.78425 97.4047 9.45091 97.5112 9.13872C97.6325 8.80946 97.8123 8.62847 98.0506 8.59577C98.1144 8.59131 98.2523 8.61374 98.4643 8.66308C98.6922 8.71129 98.9292 8.77492 99.1753 8.85394C99.3198 9.08443 99.4612 9.3873 99.5998 9.76255C99.7383 10.1378 99.7725 10.5123 99.7024 10.8861C99.6471 11.2428 99.3794 11.5423 98.8991 11.7844ZM103.457 26.2858C103.022 26.4926 102.549 26.4936 102.037 26.2888C101.543 26.0988 101.103 25.7687 100.717 25.2984C100.647 25.2071 100.539 25.0383 100.393 24.7918C100.249 24.5613 100.102 24.3069 99.9547 24.0285C99.8229 23.7491 99.7178 23.5078 99.6394 23.3048C99.5771 23.1006 99.5687 22.9809 99.6143 22.9456C99.6659 22.7656 99.8023 22.6518 100.024 22.6043C100.245 22.5567 100.469 22.5491 100.696 22.5813C100.923 22.6296 101.057 22.7004 101.095 22.794C101.151 22.9023 101.207 23.0107 101.262 23.1191C101.319 23.2434 101.383 23.3513 101.453 23.4426C101.541 23.5487 101.62 23.6395 101.689 23.7148C101.884 23.9739 102.088 24.144 102.302 24.2253C102.517 24.3225 102.678 24.3273 102.784 24.2397C103.041 24.0132 103.223 23.7519 103.331 23.4556C103.456 23.1742 103.605 22.6746 103.779 21.9567C103.914 21.3539 104.03 20.8325 104.127 20.3926C104.225 19.9527 104.333 19.5442 104.451 19.1671C104.485 18.9722 104.53 18.8087 104.585 18.6765C104.654 18.5273 104.719 18.4185 104.778 18.3502L104.922 18.3402C104.586 18.5882 104.307 18.8323 104.083 19.0725C103.859 19.3127 103.546 19.5351 103.143 19.7397C103.055 19.8581 102.821 19.9467 102.44 20.0054C102.074 20.047 101.712 20.0242 101.353 19.9371C101.12 19.825 100.928 19.7101 100.775 19.5925C100.638 19.4578 100.515 19.306 100.407 19.1371C100.315 18.9671 100.212 18.7658 100.1 18.533C99.9712 18.3014 99.9279 17.9115 99.9698 17.3633C100.012 16.815 100.117 16.2623 100.287 15.7051C100.451 15.2927 100.7 14.8422 101.034 14.3537C101.369 13.8651 101.731 13.4228 102.121 13.0267C102.509 12.6146 102.867 12.3489 103.196 12.2297C103.319 12.157 103.537 12.0695 103.851 11.9674C104.163 11.8493 104.466 11.8201 104.759 11.8798C105.033 11.8928 105.244 11.9421 105.395 12.0278C105.544 12.0976 105.788 12.257 106.126 12.506C106.348 12.699 106.622 12.9524 106.949 13.2664C107.275 13.5644 107.485 13.8224 107.581 14.0403C107.709 14.2719 107.751 14.5335 107.708 14.8253C107.663 15.1011 107.568 15.3483 107.423 15.567C107.294 15.7845 107.156 16.0026 107.011 16.2213C106.866 16.4399 106.767 16.7356 106.712 17.1083C106.666 17.5927 106.552 18.146 106.371 18.7681C106.189 19.3743 106.052 19.9372 105.96 20.4569L105.681 21.9681C105.377 23.3527 105.006 24.365 104.57 25.005C104.135 25.6609 103.764 26.0879 103.457 26.2858ZM102.378 18.085C102.696 18.0467 102.965 17.9958 103.185 17.9323C103.42 17.8517 103.635 17.7084 103.829 17.5024C104.022 17.2804 104.24 16.9524 104.482 16.5184C104.726 16.1164 104.893 15.7519 104.983 15.4248C105.072 15.0978 105.087 14.7359 105.027 14.3391C104.993 14.0848 104.91 13.9223 104.777 13.8514C104.643 13.7805 104.474 13.7683 104.269 13.8147C103.969 13.8838 103.706 14.0305 103.482 14.2547C103.255 14.463 102.997 14.7858 102.707 15.2231C102.49 15.5591 102.317 15.9561 102.189 16.4141C102.063 16.9041 102.018 17.2922 102.054 17.5784C102.106 17.8635 102.214 18.0323 102.378 18.085ZM116.744 20.4487C116.505 20.4654 116.268 20.4098 116.035 20.2817C115.8 20.1377 115.601 19.9351 115.439 19.6738C115.275 19.3966 115.18 19.0664 115.153 18.6833C115.136 18.4439 115.153 18.1059 115.202 17.6694C115.267 17.2158 115.364 16.6477 115.492 15.9651C115.509 15.7394 115.522 15.594 115.534 15.5291C115.561 15.463 115.573 15.398 115.568 15.3342C115.566 15.3023 115.557 15.2789 115.539 15.2641C115.537 15.2321 115.52 15.2173 115.488 15.2195C115.361 15.2284 115.191 15.3285 114.98 15.5197C114.784 15.6938 114.558 15.9021 114.302 16.1445C114.256 16.1798 114.203 16.2236 114.143 16.276C114.098 16.3272 114.046 16.379 113.985 16.4313C113.941 16.4826 113.888 16.5343 113.828 16.5867C113.675 16.6936 113.44 16.8945 113.124 17.1892C112.824 17.4829 112.509 17.7936 112.179 18.1215C111.865 18.4482 111.587 18.7242 111.346 18.9495C111.225 19.0542 111.119 19.1418 111.028 19.2124C110.953 19.2818 110.899 19.3176 110.867 19.3199C110.835 19.3221 110.705 19.2911 110.476 19.2269C110.261 19.1457 110.045 19.0325 109.826 18.8874C109.623 18.7252 109.513 18.5324 109.497 18.309C109.487 18.1653 109.523 17.8741 109.604 17.4353C109.702 16.9955 109.842 16.4724 110.024 15.8663C110.206 15.2601 110.42 14.6437 110.665 14.0171C110.718 13.869 110.753 13.6741 110.768 13.4324C110.783 13.1908 110.799 12.9571 110.815 12.7314C110.846 12.4887 110.914 12.3075 111.018 12.188C111.06 12.1048 111.112 12.045 111.174 12.0087C111.25 11.9552 111.328 11.9257 111.408 11.9201C111.568 11.9089 111.722 11.9382 111.871 12.008C112.02 12.0618 112.163 12.164 112.302 12.3147C112.559 12.5533 112.708 12.8477 112.749 13.1977C112.804 13.5307 112.803 13.8595 112.745 14.1843C112.688 14.5091 112.618 14.7786 112.537 14.9928C112.455 15.191 112.413 15.2742 112.41 15.2423C112.472 15.2059 112.554 15.1199 112.657 14.9844C112.776 14.8478 112.981 14.6811 113.272 14.4844C113.664 14.1361 113.968 13.8903 114.182 13.747C114.396 13.5877 114.556 13.4723 114.663 13.4006C114.787 13.3279 114.893 13.2482 114.983 13.1617C115.059 13.0923 115.112 13.0485 115.143 13.0303C115.189 13.011 115.213 13.0013 115.213 13.0013C115.261 12.998 115.338 12.9605 115.446 12.8888C115.569 12.816 115.686 12.7758 115.798 12.7679C115.958 12.7568 116.128 12.785 116.309 12.8525C116.489 12.9041 116.647 12.9892 116.784 13.108C116.92 13.2108 116.992 13.326 117.001 13.4537C117.004 13.5016 117.023 13.5404 117.057 13.5701C117.091 13.5998 117.126 13.6374 117.161 13.6831C117.248 13.7733 117.345 13.9028 117.453 14.0717C117.576 14.2235 117.65 14.4829 117.676 14.85C117.694 15.1054 117.664 15.4844 117.587 15.987C117.51 16.4896 117.424 16.9848 117.33 17.4725C117.237 17.9763 117.201 18.3797 117.222 18.683C117.258 18.9692 117.306 19.1904 117.365 19.3467C117.423 19.487 117.455 19.605 117.462 19.7008C117.471 19.8285 117.417 19.9846 117.302 20.1691C117.185 20.3376 116.999 20.4308 116.744 20.4487ZM121.691 19.9824C121.051 19.7706 120.591 19.3857 120.311 18.8279C120.032 18.27 119.914 17.5083 119.959 16.5429C119.956 16.0458 119.918 15.7198 119.843 15.5646C119.766 15.3935 119.635 15.2343 119.448 15.087C119.396 15.0265 119.277 14.9305 119.091 14.7992C118.905 14.6518 118.816 14.5377 118.827 14.4568C118.803 14.3462 118.817 14.2088 118.87 14.0447C118.922 13.8647 118.971 13.765 119.018 13.7457C119.126 13.69 119.234 13.6264 119.341 13.5547C119.464 13.4819 119.559 13.4593 119.625 13.4867C119.689 13.4823 119.787 13.5155 119.921 13.5863C120.07 13.6561 120.147 13.7229 120.151 13.7867C120.223 13.894 120.315 13.8394 120.429 13.623C120.558 13.4055 120.691 13.1315 120.828 12.8011C120.97 12.5346 121.153 12.2812 121.376 12.041C121.6 11.8008 121.826 11.5846 122.053 11.3923C122.295 11.1829 122.5 11.0242 122.669 10.9161C122.747 10.8786 122.895 10.8201 123.114 10.7407C123.349 10.6601 123.593 10.5949 123.846 10.5451C124.098 10.4794 124.289 10.45 124.417 10.457C124.706 10.4529 125.017 10.5514 125.352 10.7526C125.687 10.9537 125.949 11.1439 126.138 11.3231C126.356 11.4523 126.507 11.6662 126.592 11.965C126.692 12.2468 126.745 12.5478 126.751 12.8681C126.758 13.1885 126.713 13.4643 126.617 13.6955C126.58 13.8585 126.428 14.0937 126.161 14.401C125.894 14.7084 125.594 15.0101 125.262 15.306C124.944 15.5848 124.669 15.7804 124.437 15.8929C124.232 15.9553 123.988 16.0125 123.703 16.0646C123.417 16.1006 123.145 16.1196 122.889 16.1215C122.647 16.1063 122.477 16.0781 122.378 16.0369C122.261 15.9809 122.167 16.0115 122.095 16.1288C122.038 16.2291 122.001 16.5043 121.985 16.9546C121.981 17.1313 121.992 17.2829 122.017 17.4095C122.057 17.5349 122.096 17.6285 122.132 17.6901C122.258 17.8738 122.379 18.0096 122.498 18.0976C122.615 18.1696 122.824 18.179 123.125 18.1259C123.426 18.0727 123.717 17.868 123.996 17.5116C124.291 17.1381 124.559 16.8387 124.8 16.6134C124.856 16.4972 124.986 16.4159 125.192 16.3694C125.412 16.3059 125.676 16.3035 125.985 16.3621C126.169 16.4615 126.261 16.6315 126.261 16.872C126.278 17.1115 126.175 17.4715 125.952 17.9523C125.912 18.0673 125.788 18.2444 125.58 18.4835C125.387 18.7055 125.171 18.9372 124.931 19.1785C124.706 19.4027 124.517 19.5683 124.364 19.6752C123.903 19.9641 123.441 20.1167 122.977 20.1331C122.513 20.1495 122.084 20.0993 121.691 19.9824ZM123.086 14.4717C123.321 14.3911 123.516 14.3133 123.671 14.2383C123.842 14.1622 124.003 14.0467 124.152 13.8919C124.302 13.7371 124.47 13.5088 124.658 13.207C124.709 13.0269 124.731 12.8731 124.722 12.7454C124.729 12.6166 124.715 12.5373 124.681 12.5077C124.544 12.3889 124.398 12.359 124.242 12.4181C124.1 12.46 123.946 12.551 123.78 12.691C123.671 12.7467 123.519 12.8616 123.323 13.0357C123.141 13.1927 122.961 13.3737 122.783 13.5787C122.62 13.7665 122.488 13.9441 122.387 14.1116C122.302 14.2619 122.292 14.3508 122.358 14.3783C122.33 14.4443 122.421 14.4781 122.63 14.4796C122.854 14.4799 123.006 14.4773 123.086 14.4717ZM128.791 19.3416C128.68 19.3494 128.523 19.2802 128.32 19.134C128.133 18.9866 128.019 18.8502 127.978 18.7248C127.922 18.6004 127.909 18.4169 127.94 18.1741C127.986 17.9143 128.053 17.6129 128.141 17.2699C128.232 16.7342 128.293 16.345 128.324 16.1023C128.355 15.8595 128.389 15.6487 128.424 15.4697C128.46 15.2908 128.506 15.031 128.562 14.6902C128.644 14.476 128.702 14.2715 128.736 14.0766C128.785 13.8647 128.835 13.6527 128.884 13.4407C128.949 13.2277 129.023 13.014 129.104 12.7998C129.187 12.377 129.295 11.9765 129.429 11.5982C129.578 11.2029 129.723 10.872 129.865 10.6054C129.893 10.5553 129.959 10.4625 130.062 10.327C130.165 10.1915 130.248 10.1215 130.312 10.1171C130.43 9.98044 130.603 9.92826 130.83 9.96052C131.056 9.97681 131.253 10.0432 131.421 10.1598C131.627 10.3539 131.748 10.594 131.784 10.8802C131.835 11.1493 131.75 11.5402 131.53 12.0528C131.373 12.561 131.217 12.9649 131.061 13.2645C130.92 13.5469 130.783 13.8773 130.649 14.2556C130.807 13.9879 131.004 13.7095 131.24 13.4203C131.477 13.1311 131.661 12.9017 131.794 12.732C131.986 12.4941 132.165 12.3051 132.331 12.1652C132.513 12.0081 132.756 11.8147 133.061 11.5849C133.319 11.3744 133.578 11.1798 133.838 11.0012C134.114 10.8215 134.454 10.7497 134.857 10.7856C135.016 10.7585 135.189 10.8266 135.377 10.9899C135.581 11.152 135.741 11.3734 135.856 11.654C135.987 11.9175 136.008 12.2128 135.918 12.5399C135.546 12.4857 135.22 12.5246 134.94 12.6564C134.659 12.7722 134.42 12.9092 134.223 13.0674C134.042 13.2244 133.898 13.3468 133.792 13.4344C133.639 13.5413 133.464 13.6818 133.268 13.856C133.07 14.0141 132.859 14.1973 132.632 14.4056C132.405 14.5979 132.164 14.8153 131.908 15.0577C131.547 15.4037 131.28 15.7031 131.105 15.9559C130.93 16.2088 130.796 16.4747 130.704 16.7539C130.625 17 130.525 17.2957 130.405 17.6409C130.285 17.9861 130.17 18.2989 130.061 18.5791C129.952 18.8434 129.859 19.0103 129.784 19.0797C129.715 19.2449 129.553 19.3444 129.299 19.3782C129.061 19.4109 128.892 19.3987 128.791 19.3416ZM138.005 19.2026C137.446 19.017 137.031 18.8135 136.759 18.592C136.502 18.3533 136.39 18.1366 136.425 17.9417C136.45 17.8437 136.5 17.752 136.574 17.6666C136.648 17.5812 136.822 17.537 137.094 17.534C137.381 17.5139 137.825 17.5551 138.426 17.6574C138.601 17.6451 138.776 17.6249 138.951 17.5966C139.125 17.5684 139.283 17.5333 139.425 17.4913C139.582 17.4482 139.707 17.3994 139.799 17.3448C139.877 17.3073 139.898 17.2658 139.863 17.2201C139.826 17.1585 139.766 17.0986 139.682 17.0403C139.612 16.9649 139.537 16.9221 139.456 16.9117C139.374 16.8854 139.301 16.8744 139.238 16.8789C139.2 16.8013 139.123 16.7265 139.005 16.6545C138.904 16.5814 138.778 16.502 138.628 16.4163C138.257 16.1536 137.919 15.9205 137.617 15.7171C137.314 15.5138 137.19 15.354 137.246 15.2378C137.242 15.174 137.24 15.142 137.24 15.142C137.238 15.1261 137.238 15.1181 137.238 15.1181C137.126 15.1259 137.012 14.9815 136.895 14.685C136.777 14.3724 136.709 14.0885 136.691 13.8331C136.669 13.5139 136.71 13.1902 136.815 12.8621C136.937 12.5328 137.091 12.2173 137.279 11.9155C137.482 11.6125 137.687 11.3415 137.895 11.1024C138.178 10.7939 138.478 10.4923 138.794 10.1975C139.125 9.88568 139.483 9.60407 139.866 9.35271C140.265 9.10024 140.708 8.89286 141.194 8.73057C141.414 8.66707 141.668 8.62527 141.955 8.60518C142.242 8.58509 142.453 8.61048 142.586 8.68136C142.708 8.59262 142.869 8.6054 143.07 8.7197C143.269 8.81803 143.472 8.96425 143.678 9.15835C143.884 9.35245 144.042 9.5499 144.152 9.75069C144.166 9.94223 144.174 10.1822 144.179 10.4706C144.198 10.742 144.198 10.9825 144.181 11.1922C144.163 11.4019 144.099 11.5107 143.987 11.5185C143.987 11.5185 143.964 11.5282 143.917 11.5475C143.885 11.5497 143.872 11.5907 143.878 11.6705C143.889 11.8301 143.782 12.0221 143.557 12.2463C143.268 12.475 142.993 12.6627 142.73 12.8093C142.468 12.956 142.261 12.9785 142.109 12.8768C142.009 12.8197 141.917 12.762 141.833 12.7037C141.748 12.6454 141.671 12.5707 141.6 12.4794C141.6 12.4794 141.574 12.4491 141.522 12.3886C141.484 12.311 141.463 12.2403 141.459 12.1765C141.454 12.1126 141.474 12.0551 141.519 12.0039C141.562 11.9367 141.584 11.9031 141.584 11.9031C141.793 11.68 141.947 11.4767 142.047 11.2933C142.162 11.1088 142.239 10.9511 142.278 10.82C142.316 10.673 142.332 10.5596 142.327 10.4798C142.32 10.384 142.292 10.3299 142.243 10.3172C142.209 10.2876 142.128 10.2772 142 10.2861C141.921 10.2917 141.749 10.3678 141.487 10.5145C141.241 10.66 140.98 10.8386 140.707 11.0502C140.432 11.2459 140.219 11.4211 140.07 11.5759C140.014 11.6921 139.971 11.7673 139.941 11.8014C139.927 11.8345 139.889 11.8532 139.825 11.8577C139.82 11.7939 139.781 11.8046 139.707 11.89C139.632 11.9754 139.544 12.0938 139.443 12.2453C139.341 12.3967 139.24 12.5562 139.139 12.7236C139.039 12.891 138.96 13.0249 138.903 13.1251C138.897 13.2699 138.867 13.4083 138.812 13.5405C138.772 13.6555 138.764 13.7764 138.789 13.9029C138.816 14.0614 138.906 14.2075 139.06 14.3411C139.214 14.4747 139.434 14.6437 139.721 14.8482C140.309 15.2241 140.747 15.5223 141.035 15.7428C141.339 15.9621 141.552 16.1397 141.673 16.2755C141.795 16.4113 141.877 16.55 141.919 16.6914C142.225 17.1672 142.287 17.5959 142.105 17.9775C141.922 18.3432 141.622 18.6368 141.204 18.8585C141.05 18.9495 140.776 19.0408 140.382 19.1326C139.988 19.2403 139.567 19.3018 139.119 19.3171C138.688 19.3472 138.317 19.309 138.005 19.2026ZM147.197 14.542C146.755 14.6531 146.391 14.4941 146.105 14.065C145.817 13.62 145.776 12.8129 145.983 11.6436C146.066 11.4453 146.133 11.2562 146.184 11.0762C146.235 10.8802 146.256 10.7263 146.248 10.6146C146.298 10.4026 146.361 10.1576 146.437 9.8796C146.529 9.58449 146.622 9.31332 146.717 9.06609C146.811 8.8029 146.879 8.62973 146.922 8.54658C146.985 8.54211 147.045 8.48179 147.101 8.36559C147.173 8.24829 147.206 8.13377 147.198 8.02204C147.189 7.89435 147.203 7.74903 147.239 7.58607C147.292 7.422 147.348 7.30581 147.408 7.2375C147.402 7.15769 147.428 7.06767 147.485 6.96744C147.542 6.86721 147.568 6.78518 147.564 6.72133C147.559 6.65749 147.571 6.60051 147.6 6.55039C147.645 6.49916 147.665 6.44162 147.66 6.37778C147.786 6.11236 147.943 5.72444 148.132 5.21402C148.336 4.68653 148.53 4.13565 148.714 3.56139C148.915 2.98601 149.08 2.47727 149.209 2.03516C149.338 1.59305 149.4 1.32411 149.393 1.22835C149.416 1.09843 149.456 0.97537 149.512 0.859178C149.568 0.742986 149.661 0.696387 149.791 0.71938C149.851 0.667033 149.945 0.636395 150.073 0.627467C150.199 0.602576 150.295 0.587898 150.359 0.583434C150.359 0.583434 150.433 0.610334 150.581 0.664133C150.729 0.717932 150.863 0.80477 150.984 0.924646C151.119 1.02744 151.202 1.17405 151.231 1.36447C151.26 1.55488 151.282 1.74586 151.295 1.93739C151.301 2.24177 151.213 2.59274 151.032 2.99031C150.851 3.38789 150.65 3.82704 150.426 4.30777C150.288 4.62219 150.149 4.92065 150.008 5.20315C149.883 5.48453 149.823 5.65714 149.828 5.72098C149.832 5.78483 149.807 5.88283 149.752 6.01498C149.697 6.14713 149.636 6.31177 149.57 6.50888C149.485 6.67518 149.403 6.87341 149.323 7.10356C149.259 7.3326 149.201 7.54512 149.151 7.74111C149.099 7.92115 149.075 8.03511 149.079 8.08299C149.067 8.14795 149.048 8.21347 149.02 8.27955C149.009 8.34451 148.973 8.41114 148.914 8.47945C148.85 8.48391 148.813 8.53459 148.804 8.63147C148.81 8.71127 148.813 8.75118 148.813 8.75118C148.817 8.81502 148.788 8.96944 148.725 9.21444C148.676 9.44235 148.584 9.7215 148.446 10.0519C148.202 10.919 148.034 11.6124 147.942 12.1321C147.849 12.6358 147.799 13.0644 147.792 13.4178C147.786 13.8031 147.717 14.0726 147.583 14.2262C147.449 14.364 147.32 14.4692 147.197 14.542ZM146.187 18.3417C145.861 18.4928 145.585 18.5682 145.361 18.5679C145.137 18.5835 144.883 18.497 144.597 18.3085C144.255 18.0116 144.121 17.7002 144.195 17.3743C144.283 17.0313 144.548 16.692 144.99 16.3564C145.294 16.1266 145.519 16.0066 145.662 15.9966C145.821 15.9695 146.056 16.0091 146.368 16.1156C146.934 16.4129 147.2 16.7712 147.165 17.1906C147.129 17.5941 146.803 17.9778 146.187 18.3417Z" fill="#E75A5D"/>
</svg>
