<svg width="116" height="58" viewBox="0 0 116 58" fill="none" xmlns="http://www.w3.org/2000/svg">
<path d="M14.5682 24.9633C14.3609 24.9458 14.2042 24.9004 14.098 24.8271C13.9745 24.7685 13.8165 24.6427 13.6241 24.4498C13.449 24.2423 13.2959 23.9644 13.1649 23.6161C13.0511 23.2532 13.0144 22.8326 13.055 22.3543C13.0806 22.0514 13.1188 21.7897 13.1696 21.5692C13.2377 21.3341 13.2745 21.1846 13.2799 21.1209C13.2866 21.0412 13.2661 20.9993 13.2182 20.9952C12.8037 20.9601 11.8388 21.6411 10.3235 23.0382C10.273 23.066 10.2297 23.1025 10.1938 23.1477C9.99032 23.2749 9.80212 23.4115 9.62919 23.5575C9.37114 23.7604 9.15768 23.9109 8.9888 24.009C8.83721 24.0925 8.67305 24.1348 8.49633 24.1359C8.38473 24.1265 8.26921 24.0685 8.14977 23.9621L7.90494 23.7245C7.82928 23.67 7.76496 23.5762 7.71199 23.4433C7.65902 23.3103 7.63726 23.188 7.64672 23.0764L7.65279 23.0047L7.65684 22.9569L8.34258 21.4012C8.81542 20.5581 9.05859 20.0568 9.0721 19.8974C9.0748 19.8655 9.06818 19.8489 9.05223 19.8475C8.9101 19.8194 8.68407 19.9288 8.37414 20.1755C8.0815 20.4076 7.65647 20.7811 7.09903 21.2959L5.92769 22.3287C5.78934 22.4454 5.41416 22.799 4.80215 23.3895C4.41494 23.7902 4.21337 23.9899 4.19743 23.9886C3.84668 23.9589 3.5393 23.7964 3.27529 23.501C3.02721 23.207 2.91938 22.8687 2.95179 22.4861C2.96799 22.2948 3.02148 22.0424 3.11226 21.7289C3.20304 21.4155 3.30314 21.0868 3.41256 20.7428C3.45525 20.6179 3.49929 20.4771 3.54468 20.3204C3.60601 20.165 3.66937 19.9857 3.73475 19.7825C3.78014 19.6258 3.82688 19.4531 3.87497 19.2645C3.939 19.0773 4.04762 18.8376 4.20081 18.5455C4.35536 18.2374 4.57584 17.8145 4.86225 17.2768C4.94357 17.0749 4.99369 16.8624 5.01259 16.6392C5.02204 16.5276 5.02285 16.4233 5.01501 16.3263C5.00852 16.2133 5.00662 16.1409 5.00932 16.109C5.02958 15.8699 5.15806 15.68 5.39476 15.5395C5.64876 15.3844 5.91924 15.319 6.20622 15.3433C6.62073 15.3784 6.91879 15.5562 7.10039 15.8766C7.28335 16.1812 7.36132 16.4929 7.33431 16.8117C7.31136 17.0828 7.2253 17.3404 7.07616 17.5847L6.75841 18.2081C6.68249 18.3462 6.54063 18.5991 6.33285 18.9669C6.14237 19.3201 6.04375 19.5365 6.037 19.6162C6.03295 19.6641 6.04686 19.6893 6.07875 19.692L6.10266 19.6941C6.18238 19.7008 6.31735 19.6239 6.50757 19.4634C7.05826 19.0283 7.71392 18.5861 8.47456 18.1367C9.2525 17.6727 9.80494 17.4064 10.1319 17.3377C10.2594 17.3485 10.4214 17.4265 10.6179 17.5716C10.8144 17.7167 10.9828 17.9076 11.1234 18.1443C11.2652 18.365 11.3254 18.6029 11.3038 18.858L11.2637 19.0473C11.2423 19.1097 11.1476 19.3747 10.9796 19.8422C10.8275 20.311 10.7161 20.5826 10.6456 20.6569C10.9782 20.3318 11.5408 19.9459 12.3333 19.4992C13.1272 19.0366 13.7002 18.8121 14.0523 18.8259C14.5784 18.8704 14.903 19.1147 15.0259 19.5587C15.1489 20.0026 15.2072 20.6418 15.2007 21.4763C15.1983 22.2629 15.2414 22.7964 15.3301 23.0769C15.3539 23.1752 15.4587 23.2644 15.6446 23.3444C15.8306 23.4244 15.9753 23.5169 16.0788 23.622C16.1995 23.7125 16.2491 23.8853 16.2275 24.1404C16.1978 24.4912 16.0175 24.7248 15.6865 24.8413C15.3714 24.9591 14.9986 24.9998 14.5682 24.9633ZM17.2984 25.2427C17.2587 25.143 17.1339 25.004 16.9243 24.8257C16.7146 24.6473 16.6111 24.5422 16.6138 24.5103C16.6192 24.4466 16.5867 24.3555 16.5165 24.2371C16.4635 24.1042 16.4092 23.9872 16.3535 23.8861C16.2368 23.7478 16.3596 23.3407 16.7219 22.6649C17.0842 21.989 17.561 21.1944 18.1522 20.2811C18.2559 20.1935 18.3897 20.0362 18.5534 19.8093C18.7331 19.5836 18.8482 19.4569 18.8987 19.429C18.9041 19.3653 18.9328 19.3115 18.9847 19.2677C19.0379 19.208 19.0964 19.1808 19.1602 19.1862L19.3839 18.8198C19.4598 18.6817 19.7997 18.3653 20.4036 17.8705C21.0076 17.3757 21.477 17.0461 21.8121 16.8818C22.1326 16.7002 22.4682 16.6243 22.8189 16.654C23.2016 16.6864 23.5189 16.8257 23.7711 17.0718L24.3702 17.6766C24.8147 18.1156 25.0661 18.3698 25.1245 18.4389L25.9425 19.3031L25.4347 20.4643C25.2547 20.8826 25.1486 21.2831 25.1162 21.6657C25.0648 22.2716 25.1843 22.8517 25.4746 23.4062C25.5394 23.5883 25.6316 23.7326 25.751 23.8391C25.8864 23.9469 26.0643 24.0262 26.2848 24.077C26.6302 24.1705 26.7907 24.3607 26.7664 24.6477C26.7367 24.9984 26.6506 25.2561 26.5082 25.4206C26.3658 25.5852 26.2049 25.684 26.0255 25.7169C25.7677 25.7272 25.591 25.7283 25.4953 25.7202C25.033 25.681 24.6206 25.5257 24.2583 25.2541C23.8959 24.9826 23.5955 24.5477 23.3572 23.9494C23.3015 23.8484 23.2286 23.6656 23.1387 23.401C23.0646 23.1379 23.0237 22.9578 23.0158 22.8607C22.8907 23.0107 22.6898 23.2025 22.4131 23.4359C20.6306 24.9549 19.2291 25.6712 18.2088 25.5848C17.858 25.5551 17.5546 25.4411 17.2984 25.2427ZM18.7818 23.3692C19.0342 23.4227 19.5527 23.1776 20.3374 22.6339C20.4225 22.5769 20.5163 22.5126 20.6187 22.4409C20.7224 22.3534 20.8342 22.2665 20.9539 22.1803C21.4313 21.8514 21.7998 21.5775 22.0592 21.3587C22.3359 21.1252 22.6166 20.8439 22.9014 20.5147L23.5004 19.6984C23.3707 19.3341 23.2468 19.0908 23.1287 18.9684C23.012 18.83 22.8898 18.7555 22.7623 18.7447C22.4434 18.7177 22.0205 18.9709 21.4936 19.5043C20.9681 20.0218 20.3219 20.8261 19.5551 21.9173C19.3554 22.1894 19.1863 22.4802 19.0477 22.7896C18.9104 23.0831 18.8218 23.2763 18.7818 23.3692ZM28.0161 26.7526C27.6535 26.6737 27.3556 26.3996 27.1223 25.9303C26.9051 25.4623 26.8194 24.9572 26.8653 24.4152L26.9135 24.1302C27.0246 23.5776 27.188 23.0696 27.4039 22.6062C27.6198 22.1427 27.9347 21.6475 28.3486 21.1206C28.6429 20.6799 29.1557 20.2175 29.8872 19.7335C30.62 19.2336 31.2569 18.9182 31.7979 18.7874C32.1926 18.6763 32.5495 18.6343 32.8683 18.6613C33.1553 18.6856 33.4382 18.7577 33.7171 18.8777C33.9308 19.0082 34.1015 19.0788 34.229 19.0896C34.3884 19.1031 34.4988 19.0322 34.5602 18.8768C34.6147 18.8012 34.6913 18.6551 34.79 18.4387C34.9059 18.2076 35.0098 18.0237 35.1016 17.887L35.7594 16.3771L36.5068 14.9471L37.338 13.3796C37.8214 12.6017 38.2464 12.2282 38.6131 12.2593C38.7566 12.2714 38.8728 12.3214 38.9617 12.4092C39.1714 12.5875 39.3253 12.7612 39.4234 12.93C39.5374 13.1003 39.5836 13.3129 39.562 13.568C39.5445 13.7753 39.4484 14.0562 39.2739 14.4107C38.9637 14.8501 38.6488 15.3453 38.3292 15.8963L37.9016 16.679C37.3847 17.6629 37.0776 18.2551 36.9803 18.4556L36.7343 19.0851C36.553 19.5193 36.417 19.8932 36.3262 20.2066C36.1406 20.8814 36 21.2147 35.9043 21.2066C35.5917 21.4852 35.241 22.4029 34.8522 23.9596C34.7561 24.3368 34.6621 25.0675 34.5702 26.1516C34.5378 26.5343 34.4996 26.796 34.4556 26.9367C34.4115 27.0775 34.341 27.1518 34.244 27.1597C33.9862 27.17 33.8095 27.1711 33.7138 27.163C33.3471 27.1319 33.0769 27.0046 32.9032 26.7812C32.7121 26.5723 32.5901 26.4014 32.5371 26.2685C32.4855 26.1196 32.4758 25.9501 32.5079 25.7602C32.5401 25.5702 32.5569 25.3709 32.5586 25.1623C32.5775 24.9391 32.5996 24.7724 32.625 24.6621C32.5826 24.5943 32.4144 24.6844 32.1204 24.9325C31.9647 25.0639 31.7679 25.2078 31.5298 25.3642C30.9192 25.9387 30.3792 26.3426 29.9098 26.5758C29.4577 26.7944 28.9926 26.8835 28.5143 26.843C28.4027 26.8335 28.2366 26.8034 28.0161 26.7526ZM28.9754 24.8107C29.2305 24.8323 29.4851 24.7655 29.7391 24.6104C30.009 24.4566 30.281 24.279 30.555 24.0774C30.8303 23.8598 31.0285 23.7 31.1496 23.5978C31.6324 23.2052 32.158 22.6877 32.7262 22.0453C33.3104 21.4044 33.6079 21.0201 33.6187 20.8926C33.6281 20.781 33.5094 20.6665 33.2624 20.5493C33.0313 20.4333 32.8341 20.3926 32.6706 20.4269C32.3131 20.4769 31.9894 20.602 31.6995 20.8023C31.4268 20.9879 31.0616 21.3183 30.6039 21.7933C30.0943 22.3122 29.6724 22.8384 29.3381 23.3721C29.0212 23.8912 28.8513 24.2863 28.8283 24.5573C28.8148 24.7168 28.8638 24.8012 28.9754 24.8107ZM39.3553 28.0502C37.5378 27.8963 36.7169 26.783 36.8924 24.7105C36.9559 23.9611 37.2108 23.1317 37.6571 22.2221C38.1208 21.298 38.6633 20.4848 39.2848 19.7828C39.9236 19.0661 40.5328 18.6039 41.1124 18.3961C41.4288 18.2623 41.7863 18.2123 42.1848 18.2461C42.9023 18.3068 43.5105 18.5189 44.0097 18.8823C44.5261 19.2312 44.7478 19.836 44.6749 20.6969C44.633 21.1912 44.4197 21.7191 44.035 22.2806C43.6502 22.8421 43.1852 23.3085 42.6399 23.6798C42.1119 24.0366 41.6088 24.1947 41.1305 24.1541C40.413 24.0934 39.8268 23.8109 39.3717 23.3067C39.0548 23.8258 38.8754 24.3325 38.8335 24.8267C38.7998 25.2253 38.8213 25.5402 38.898 25.7715C38.9761 25.9869 39.1905 26.1094 39.5413 26.1391C39.8761 26.1675 40.1512 26.1426 40.3665 26.0645C40.5819 25.9864 40.7826 25.891 40.9688 25.7783C41.155 25.6656 41.2986 25.5814 41.3997 25.5258L41.4994 25.486L41.4755 25.484C41.7759 25.3489 41.9933 25.2469 42.1276 25.178C42.2792 25.0945 42.4042 25.0408 42.5025 25.017C42.7417 25.0373 42.9588 25.1279 43.1539 25.289C43.349 25.45 43.4378 25.6342 43.4202 25.8414C43.4067 26.0008 43.241 26.2517 42.9229 26.5941C42.6063 26.9206 42.2904 27.1427 41.9753 27.2605L41.6762 27.3797L41.7001 27.3817C41.5404 27.5609 41.3888 27.6444 41.2453 27.6323L41.054 27.616C40.9795 27.7382 40.7534 27.8475 40.3759 27.944C40.0144 28.0418 39.6742 28.0772 39.3553 28.0502ZM41.087 22.3922C41.5334 22.43 41.9163 22.2697 42.2357 21.9114C42.571 21.5544 42.7549 21.1846 42.7873 20.802C42.8021 20.6266 42.7678 20.4632 42.6843 20.3116C42.6167 20.1613 42.5112 20.0801 42.3677 20.068C42.0967 20.045 41.783 20.1469 41.4266 20.3737C41.0702 20.6004 40.7469 20.9102 40.4567 21.3031L40.1033 21.779C40.1697 21.7525 40.2189 21.7406 40.2508 21.7433C40.3783 21.7541 40.4693 21.818 40.5236 21.935C40.5779 22.052 40.6415 22.1537 40.7145 22.2402C40.7875 22.3267 40.9116 22.3773 41.087 22.3922ZM62.1669 14.4228C62.2372 14.5412 62.2615 14.7279 62.2399 14.983C62.2224 15.1902 62.1716 15.4107 62.0875 15.6445C62.0049 15.8623 61.9096 16.0389 61.8018 16.1742C61.674 16.3561 61.3793 16.6121 60.9178 16.9424C60.4563 17.2726 60.1857 17.4343 60.106 17.4276C60.0263 17.4208 59.9114 17.3549 59.7614 17.2298C59.6128 17.0888 59.5253 16.985 59.4988 16.9185L59.4672 16.7232C59.4793 16.5797 59.5479 16.4329 59.673 16.283C59.8154 16.1184 59.9139 15.9983 59.9685 15.9226C60.1682 15.6505 60.2714 15.4746 60.2781 15.3949C60.2808 15.363 60.2683 15.3218 60.2404 15.2712C60.214 15.2048 60.1875 15.1383 60.161 15.0718L60.0892 15.0658C60.0095 15.059 59.8627 15.0867 59.6487 15.1489C59.4147 15.2575 59.2465 15.3476 59.144 15.4192C59.043 15.4749 58.9572 15.5399 58.8867 15.6142C58.8175 15.6726 58.7649 15.7243 58.729 15.7695C58.4723 15.9565 58.2521 16.1867 58.0684 16.4602C57.8846 16.7336 57.6875 17.0702 57.477 17.4699C57.3225 17.7779 57.1993 18.0003 57.1074 18.1371C56.6346 18.9802 56.3402 19.5172 56.2243 19.7483C56.1257 19.9647 56.0124 20.1639 55.8846 20.3457C55.7568 20.5276 55.6916 20.6345 55.6889 20.6664C55.6516 20.7274 55.6396 20.7746 55.6528 20.8078C55.6834 20.8265 55.7544 20.8405 55.866 20.85C56.0573 20.8662 56.2334 20.8731 56.3942 20.8706C56.7649 20.8538 57.0778 20.8563 57.3329 20.8779C57.7315 20.9116 58.0217 20.9924 58.2036 21.1202C58.3868 21.2321 58.5015 21.3943 58.5477 21.607C58.6312 21.7586 58.6682 21.8902 58.6588 22.0018C58.6399 22.225 58.4417 22.3848 58.0642 22.4813C57.688 22.5618 57.088 22.6315 56.2641 22.6901C56.0236 22.6858 55.823 22.6849 55.6622 22.6873C55.5187 22.6752 55.4065 22.6737 55.3254 22.6829C55.3095 22.6815 55.2689 22.6861 55.2038 22.6967C55.156 22.6926 55.1041 22.7364 55.0482 22.828C54.9936 22.9037 54.935 23.0272 54.8723 23.1985C54.8696 23.2304 54.8322 23.3878 54.76 23.6707C54.716 23.8115 54.6665 24.016 54.6117 24.2844C54.5531 24.4079 54.5117 24.5168 54.4877 24.6111C54.4636 24.7054 54.4409 24.7837 54.4196 24.8462C54.3848 25.068 54.3207 25.2553 54.2275 25.4079C54.1246 25.8649 53.9973 26.6088 53.8458 27.6397C53.6797 28.6533 53.5345 29.4198 53.4102 29.9391C53.2859 30.4585 53.1253 30.8383 52.9283 31.0785C52.7727 31.2099 52.5785 31.3219 52.3459 31.4146C52.1278 31.5246 51.9743 31.5357 51.8854 31.4478C51.6622 31.4289 51.4797 31.3091 51.3378 31.0883C51.1959 30.8676 51.129 30.7094 51.1371 30.6137C51.1598 30.5353 51.1919 30.4417 51.2332 30.3328C51.2732 30.2399 51.3045 30.1542 51.3272 30.0758C51.3686 29.9669 51.4007 29.777 51.4237 29.5059C51.4504 29.3797 51.4719 29.221 51.4881 29.0297C51.5189 28.8557 51.5551 28.6179 51.5967 28.3163C51.7977 27.0808 51.9516 26.2107 52.0586 25.706C52.1829 25.1866 52.3971 24.4581 52.7014 23.5204C52.7494 23.3318 52.7836 23.1179 52.8039 22.8788C52.8228 22.6556 52.803 22.5094 52.7447 22.4402C52.6877 22.3551 52.5881 22.2985 52.4459 22.2704C52.1444 22.2288 51.8881 22.1268 51.677 21.9644C51.466 21.802 51.3367 21.6225 51.2891 21.4258C51.2015 21.322 51.1618 21.2223 51.1699 21.1266C51.1834 20.9672 51.3304 20.8432 51.6109 20.7545C51.9087 20.6513 52.2323 20.6225 52.5817 20.6681C52.6454 20.6735 52.7976 20.6784 53.038 20.6827C53.2945 20.6884 53.4766 20.6235 53.5844 20.4881C53.7095 20.3381 53.8341 20.0998 53.9581 19.7731C54.0208 19.6018 54.1294 19.3621 54.2839 19.054C54.4558 18.7314 54.5704 18.5163 54.6276 18.4087C54.6782 18.3809 54.7314 18.3212 54.7873 18.2296C54.8433 18.138 54.8739 18.0603 54.8793 17.9965C54.9128 17.7906 55.0321 17.5197 55.2372 17.1838C55.4582 16.8493 55.8396 16.3276 56.3813 15.6188C57.0188 14.9181 57.6187 14.3748 58.1813 13.9889C58.7598 13.6043 59.3322 13.3879 59.8983 13.3395C59.9661 13.297 60.1189 13.2939 60.3567 13.3301C60.6118 13.3517 60.7553 13.3639 60.7871 13.3666C61.4394 13.4379 61.8994 13.79 62.1669 14.4228ZM60.2502 29.6032C60.0576 29.6029 59.8995 29.5735 59.776 29.5149C59.6671 29.4735 59.5071 29.3717 59.2961 29.2093C58.9683 28.9085 58.7017 28.5488 58.4963 28.1299C58.3069 27.7124 58.2316 27.3689 58.2705 27.0992C58.2905 27.0527 58.3046 26.9816 58.3127 26.886C58.3208 26.7903 58.3189 26.7179 58.307 26.6687C58.2964 26.6036 58.2918 26.5631 58.2932 26.5471C58.2335 26.4939 58.1963 26.4586 58.1817 26.4413C58.1844 26.4095 58.1951 26.3783 58.2137 26.3477C58.2483 26.3185 58.2749 26.2887 58.2936 26.2581C58.3587 26.2476 58.3933 26.2184 58.3973 26.1706C58.4014 26.1228 58.3902 26.0656 58.3637 25.9991C58.3267 25.8675 58.3749 25.5826 58.5083 25.1443C58.6591 24.6914 58.839 24.2731 59.0482 23.8894C59.2014 23.5973 59.4337 23.2235 59.7453 22.7682C60.0728 22.3142 60.3669 21.9698 60.6276 21.735C61.0654 21.3064 61.4212 20.9913 61.6952 20.7897C61.9852 20.5895 62.3029 20.4397 62.6485 20.3406C62.929 20.2519 63.2127 20.2197 63.4997 20.2441C63.8823 20.2765 64.2077 20.4164 64.4758 20.6639C65.3629 20.996 65.8711 21.5368 66.0003 22.2864C66.0676 22.6293 66.0837 23.008 66.0486 23.4225C65.9729 24.3153 65.6109 25.2722 64.9624 26.2931C64.6082 26.8733 64.2627 27.3498 63.9261 27.7227C63.6067 28.081 63.2249 28.418 62.7807 28.7337C62.4734 28.9485 62.0719 29.1393 61.5761 29.306C61.0975 29.4582 60.6556 29.5572 60.2502 29.6032ZM62.6366 26.1683C62.8696 25.883 63.0613 25.6102 63.2118 25.35C63.3623 25.0897 63.5049 24.7325 63.6397 24.2783C63.7278 23.9967 63.784 23.7124 63.8083 23.4254C63.8515 22.9153 63.8034 22.6302 63.664 22.5702C63.5564 22.5129 63.4469 22.4796 63.3353 22.4701C63.0004 22.4418 62.6315 22.6273 62.2283 23.0267C61.8279 23.3942 61.5238 23.7618 61.316 24.1296C61.1082 24.4974 60.8569 25.0943 60.5622 25.9204C60.4768 26.1701 60.4233 26.4225 60.4017 26.6775C60.3801 26.9326 60.4024 27.1433 60.4686 27.3094C60.5362 27.4597 60.6497 27.5416 60.8091 27.5551C61.2555 27.5929 61.8647 27.1306 62.6366 26.1683ZM67.0982 29.3161C66.8899 29.1218 66.7287 28.9396 66.6146 28.7694C66.5006 28.5991 66.4796 28.3725 66.5518 28.0896C66.6455 27.5516 66.8184 26.932 67.0705 26.2308L67.2306 25.7626C67.3149 25.3362 67.6336 24.5122 68.1866 23.2905C68.757 22.0542 69.2126 21.2257 69.5533 20.8049C69.7262 20.659 70.004 20.6023 70.3866 20.6347C70.7055 20.6617 70.9233 20.7443 71.04 20.8827C71.1595 20.9892 71.2097 21.154 71.1908 21.3772C71.1598 21.7439 70.8739 22.37 70.3332 23.2555L70.0516 23.7375C69.9224 23.9353 69.8105 24.1185 69.716 24.2871C69.6374 24.4571 69.6386 24.5375 69.7196 24.5283C69.9207 24.2402 70.3783 23.8615 71.0924 23.3921C71.8225 22.924 72.3205 22.637 72.5864 22.5311C72.7034 22.4768 72.8523 22.4251 73.0331 22.3762C73.2139 22.3273 73.3375 22.2896 73.404 22.2631C73.7031 22.1439 74.036 22.0999 74.4027 22.1309C74.6578 22.1525 74.8696 22.2106 75.0382 22.3052C75.2241 22.3852 75.3429 22.4996 75.3945 22.6485C75.401 22.7614 75.4335 22.8525 75.4918 22.9217C75.5661 22.9922 75.6186 23.0368 75.6491 23.0554C75.6969 23.0595 75.7268 23.0861 75.7387 23.1353C75.7519 23.1685 75.7579 23.1931 75.7565 23.209C75.7457 23.3366 75.6199 23.4945 75.3792 23.6829C75.1398 23.8553 74.8998 23.9393 74.6593 23.935C74.4826 23.9361 74.2959 23.9605 74.0992 24.008C73.9025 24.0556 73.7044 24.1191 73.505 24.1986L72.8528 24.5046C72.2878 24.7297 71.8025 24.9616 71.3969 25.2002C71.0086 25.4242 70.6056 25.7273 70.1879 26.1094C70.1014 26.1824 69.9724 26.2839 69.8008 26.4138C69.6452 26.5452 69.5034 26.7018 69.3756 26.8836C69.2546 26.9858 69.11 27.2706 68.942 27.7381C68.7912 28.191 68.7111 28.4732 68.7017 28.5848C68.6817 28.6313 68.6417 28.7243 68.5817 28.8637C68.5217 29.0031 68.4392 29.1246 68.3341 29.2281C68.1757 29.3913 68.0453 29.5087 67.9429 29.5803C67.8405 29.652 67.7335 29.683 67.6219 29.6736C67.4625 29.6601 67.2879 29.5409 67.0982 29.3161ZM88.9482 22.8812C89.0674 23.1803 89.1114 23.5132 89.0804 23.8799C89.0412 24.3422 88.9052 24.7161 88.6723 25.0015C88.4939 25.2112 88.3221 25.5338 88.1567 25.9694C88.0073 26.4064 87.8451 26.9948 87.67 27.7346C87.4752 28.3283 87.2209 29.2461 86.9069 30.4881C86.5951 31.1361 86.3932 31.6247 86.301 31.9541C86.277 32.0485 86.1804 32.241 86.0112 32.5318C85.858 32.8239 85.7342 33.0542 85.6396 33.2229C84.7993 34.6129 83.8538 35.6327 82.8033 36.2824C81.7686 36.9334 80.7384 37.2476 79.7127 37.2249C79.4549 37.2352 79.3021 37.2383 79.2543 37.2343C79.1108 37.2221 78.9773 37.1867 78.8538 37.1281C78.7463 37.0708 78.6241 36.9962 78.4874 36.9044C78.1874 36.6542 78.0176 36.4792 77.9779 36.3795C77.9116 36.2133 77.8853 36.0505 77.8988 35.8911C77.919 35.6519 78.0448 35.494 78.2761 35.4172C78.5061 35.3564 78.7645 35.3382 79.0515 35.3625C79.1577 35.4357 79.3463 35.4838 79.6174 35.5068C79.8884 35.5297 80.0505 35.5113 80.1037 35.4516C80.1383 35.4224 80.2387 35.3747 80.4049 35.3085C80.5697 35.2582 80.7578 35.218 80.9691 35.1877C81.5168 34.9772 81.937 34.7558 82.2296 34.5237C82.5382 34.2929 82.8835 33.9127 83.2656 33.3831C83.7155 32.811 84.0251 32.2832 84.1945 31.7998C84.4464 31.2913 84.7596 30.531 85.1344 29.519L85.1084 29.5409C85.0206 29.6298 84.8092 29.7564 84.4741 29.9207C84.1404 30.0691 83.9417 30.1406 83.8779 30.1352C83.862 30.1338 83.8374 30.1398 83.8041 30.153C83.7709 30.1662 83.7522 30.1968 83.7482 30.2446C83.7428 30.3084 83.5268 30.3944 83.1001 30.5028C82.6748 30.5953 82.4063 30.6368 82.2947 30.6273C82.1353 30.6138 81.9673 30.5113 81.7909 30.3197C81.6304 30.1295 81.5163 29.9592 81.4488 29.809C81.3971 29.6601 81.2897 29.5065 81.1265 29.3481C80.9514 29.1406 80.8221 28.9611 80.7386 28.8095C80.6564 28.642 80.6241 28.4546 80.6417 28.2473C80.6511 28.1357 80.6665 28.0487 80.6879 27.9863C80.94 27.285 81.3839 26.2147 82.0196 24.7752C82.6727 23.3211 83.1343 22.4209 83.4045 22.0744C83.4764 21.9842 83.6027 21.9146 83.7835 21.8657C83.9642 21.8168 84.1423 21.7997 84.3177 21.8146C84.6365 21.8416 84.8437 21.9555 84.9391 22.1562C85.1074 22.4435 85.1835 22.6828 85.1673 22.8741C85.1484 23.0973 85.0091 23.4147 84.7494 23.8262C84.6708 23.9962 84.5749 24.1807 84.4617 24.3799C84.3485 24.5791 84.2899 24.7025 84.2858 24.7504C84.2645 24.8128 84.1997 25.008 84.0917 25.3361C83.985 25.6482 83.8997 25.8015 83.8359 25.7961C83.7322 25.8837 83.5922 26.209 83.4161 26.7722C83.2572 27.3207 83.1636 27.7624 83.1352 28.0972C83.119 28.2885 83.1348 28.3862 83.1827 28.3903C83.6131 28.4267 84.0371 28.3502 84.4546 28.1608C84.8734 27.9554 85.3197 27.6158 85.7933 27.1421C85.8909 26.749 86.015 26.3259 86.1658 25.873C86.3325 25.4215 86.4465 25.118 86.5078 24.9627C86.8785 23.9985 87.1373 23.2176 87.2843 22.6198C87.3989 22.4047 87.4814 22.2833 87.5319 22.2554C87.5838 22.2117 87.6895 22.1965 87.8489 22.21C88.0402 22.2262 88.2428 22.2996 88.4565 22.4301C88.6862 22.5619 88.8501 22.7123 88.9482 22.8812ZM90.7894 31.8044C90.598 31.7882 90.4493 31.7435 90.3431 31.6703C90.2369 31.597 90.0876 31.464 89.8952 31.271C89.6047 30.9092 89.3866 30.5455 89.2409 30.1799C89.0966 29.7984 89.0599 29.4741 89.1306 29.2072C89.1879 29.0996 89.2133 28.9894 89.2068 28.8764C89.2163 28.7648 89.2224 28.6931 89.2251 28.6612C89.1667 28.592 89.1382 28.5494 89.1395 28.5335C89.1422 28.5016 89.1602 28.4791 89.1934 28.4658C89.228 28.4366 89.2546 28.4068 89.2733 28.3762C89.3689 28.3843 89.4082 28.2993 89.3912 28.1213C89.3701 27.991 89.4496 27.7168 89.6295 27.2984C89.8095 26.8801 90.0266 26.4971 90.2808 26.1493C90.4805 25.8772 90.766 25.5401 91.1372 25.138C91.5244 24.7372 91.863 24.4367 92.1529 24.2365C93.0081 23.6185 93.7607 23.2647 94.4105 23.1752C94.7362 23.1225 95.0504 23.109 95.3533 23.1347C95.8157 23.1738 96.1636 23.3317 96.3971 23.6084C96.7357 23.7816 96.9732 24.0105 97.1097 24.295C97.2461 24.5796 97.3194 24.947 97.3294 25.3975C97.3373 25.4945 97.3317 25.6546 97.3128 25.8778C97.2129 27.0576 96.6625 28.2474 95.6617 29.4472C95.2504 29.9423 94.848 30.3337 94.4543 30.6215C94.0606 30.9093 93.5872 31.1903 93.034 31.4646C92.7309 31.6316 92.4172 31.7335 92.0929 31.7703C91.7686 31.8071 91.3341 31.8184 90.7894 31.8044ZM93.4757 29.0935C93.8016 28.8481 94.0398 28.5953 94.1903 28.3351C94.3581 28.0602 94.5992 27.5829 94.9137 26.903C95.0215 26.7676 95.0937 26.4847 95.1301 26.0542C95.1625 25.6716 95.125 25.4516 95.0174 25.3944C94.9431 25.3238 94.8502 25.2839 94.7386 25.2744C94.5951 25.2623 94.3544 25.3543 94.0167 25.5505C93.4182 25.9815 92.9053 26.4439 92.4781 26.9376C92.0682 27.4167 91.7632 27.985 91.563 28.6424C91.5416 28.7048 91.5256 28.7998 91.5148 28.9274C91.4689 29.4694 91.6372 29.7567 92.0198 29.7891C92.3865 29.8201 92.8718 29.5883 93.4757 29.0935ZM103.612 33.2036C103.495 33.2579 103.346 33.2212 103.164 33.0934C102.998 32.9669 102.837 32.7847 102.68 32.5466C102.57 32.3285 102.5 32.1218 102.468 31.9265C102.438 31.7152 102.439 31.4182 102.471 31.0356L102.542 30.4876C102.554 30.3441 102.536 30.2703 102.488 30.2662C102.44 30.2622 102.322 30.3325 102.133 30.477C101.962 30.607 101.738 30.7808 101.463 30.9983C100.945 31.4202 100.508 31.7444 100.152 31.9712C99.8129 32.1833 99.5404 32.2726 99.3345 32.2391C99.1591 32.2243 98.9248 32.0519 98.6316 31.722C98.3398 31.3761 98.1502 31.055 98.0629 30.7585C98.0313 30.5632 98.0256 30.3459 98.0458 30.1068C98.108 29.3734 98.343 28.4941 98.751 27.4689C99.159 26.4436 99.6106 25.5666 100.106 24.8378C100.602 24.0931 100.993 23.7488 101.277 23.805C101.53 23.8585 101.742 24.0049 101.914 24.2443C102.104 24.4691 102.25 24.7384 102.352 25.0521C102.392 25.1518 102.409 25.2336 102.403 25.2973C102.394 25.409 102.321 25.5151 102.184 25.6159C101.917 25.9146 101.57 26.415 101.141 27.1173C100.714 27.8037 100.363 28.4404 100.088 29.0273C99.8151 29.5983 99.7343 29.8885 99.8459 29.8979C100.069 29.9168 100.273 29.8779 100.458 29.7812C100.659 29.6858 100.923 29.5074 101.25 29.2461C101.872 28.7208 102.493 28.0347 103.11 27.1878C103.87 26.1763 104.29 25.5856 104.368 25.4156L104.672 24.9596C104.858 24.6542 104.995 24.4571 105.083 24.3682C105.172 24.2634 105.274 24.1997 105.388 24.1773L105.938 24.2239C106.033 24.2479 106.138 24.3291 106.255 24.4675C106.393 24.5434 106.521 24.6425 106.639 24.765C106.757 24.8874 106.813 24.9884 106.806 25.0681L106.349 25.9206L106.091 26.4045C105.58 27.3246 105.188 28.0622 104.916 28.6173C104.646 29.1564 104.429 29.7241 104.266 30.3205C104.243 30.3988 104.224 30.5337 104.208 30.725C104.167 31.2033 104.187 31.5421 104.266 31.7416C104.385 32.0407 104.511 32.2601 104.644 32.3998C104.763 32.5062 104.753 32.6258 104.613 32.7585C104.475 32.8752 104.282 32.9793 104.033 33.0706C103.8 33.1633 103.66 33.2076 103.612 33.2036ZM109.358 29.6679C109.309 29.6798 109.236 29.6817 109.141 29.6736C108.838 29.6479 108.601 29.5074 108.43 29.2521C108.276 28.9821 108.221 28.5921 108.264 28.0819C108.298 27.6833 108.411 27.1952 108.605 26.6174C108.866 26.1899 109.006 25.8646 109.025 25.6414C109.127 25.3771 109.284 25.0451 109.494 24.6455C109.706 24.2299 109.877 23.9152 110.008 23.7014C110.072 23.7069 110.14 23.6565 110.213 23.5503C110.303 23.4454 110.352 23.3372 110.361 23.2256C110.373 23.0821 110.41 22.9406 110.47 22.8012C110.547 22.6472 110.62 22.541 110.689 22.4826C110.693 22.4348 110.732 22.3578 110.805 22.2516C110.88 22.1294 110.919 22.0444 110.923 21.9966C110.926 21.9647 110.946 21.9182 110.983 21.8572C111.038 21.7815 111.067 21.7198 111.071 21.6719C111.398 21.2179 111.889 20.3523 112.543 19.0749C113.198 17.7976 113.541 17.0559 113.575 16.85C113.67 16.4888 113.827 16.3415 114.046 16.4082C114.131 16.3512 114.325 16.3355 114.628 16.3612C114.674 16.3812 114.759 16.4284 114.881 16.503C115.003 16.5776 115.107 16.6747 115.193 16.7944C115.295 16.9155 115.348 17.0564 115.35 17.2172C115.369 17.3793 115.367 17.5879 115.345 17.843C115.309 18.0808 115.215 18.3378 115.063 18.6139C114.913 18.8742 114.737 19.1483 114.536 19.4364C114.335 19.7244 114.197 19.9295 114.123 20.0517L113.763 20.5993C113.47 21.0241 113.32 21.2764 113.314 21.3561C113.308 21.4198 113.258 21.536 113.164 21.7047C113.07 21.8573 112.995 21.9874 112.938 22.095C112.793 22.2915 112.633 22.5669 112.458 22.9215C112.3 23.2774 112.217 23.4952 112.21 23.5749C112.192 23.6054 112.163 23.6592 112.125 23.7362C112.102 23.8146 112.056 23.8829 111.987 23.9413C111.939 23.9373 111.904 23.9744 111.881 24.0528C111.86 24.1152 111.848 24.1624 111.845 24.1942C111.838 24.274 111.785 24.43 111.685 24.6624C111.585 24.8948 111.451 25.1484 111.283 25.4232C110.61 26.9238 110.222 27.9988 110.119 28.6485C110.059 28.9806 109.959 29.213 109.819 29.3456C109.695 29.4797 109.542 29.5871 109.358 29.6679ZM107.777 33.2673C107.463 33.3692 107.202 33.4113 106.995 33.3938C106.756 33.3735 106.494 33.239 106.21 32.9901C105.992 32.7307 105.892 32.4814 105.912 32.2423C105.946 31.8437 106.275 31.4701 106.899 31.1215C107.268 30.928 107.533 30.838 107.692 30.8515C107.804 30.861 108.006 30.9423 108.298 31.0955C108.75 31.4389 108.962 31.786 108.932 32.1368C108.894 32.5832 108.509 32.96 107.777 33.2673Z" fill="#E75A5D"/>
<path d="M31.8084 33.4262C32.2738 36.689 31.5911 43.2345 25.1377 43.3138C17.0709 43.413 16.4463 39.034 21.3962 38.328C26.3461 37.6221 38.9627 48.1756 15.7909 55.6857" stroke="#E75A5D" stroke-width="1.5" stroke-linecap="round" stroke-linejoin="round"/>
<path d="M17.477 53.3427L15.791 55.6858L18.9446 56.5501" stroke="#E75A5D" stroke-width="1.5" stroke-linecap="round" stroke-linejoin="round"/>
</svg>
